<?xml version="1.0" encoding="UTF-8"?>
<!DOCTYPE svg PUBLIC "-//W3C//DTD SVG 1.1//EN" "http://www.w3.org/Graphics/SVG/1.1/DTD/svg11.dtd">
<svg version="1.1" xmlns="http://www.w3.org/2000/svg" xmlns:xlink="http://www.w3.org/1999/xlink" x="0" y="0" width="400.628" height="396.633" viewBox="0, 0, 400.628, 396.633">
  <g id="Layer_1">
    <g id="Layer_1">
      <text transform="matrix(1, 0, -0, 1, 394.628, 389.133)">
        <tspan x="-5.5" y="3" font-family="BookmanOldStyle" font-size="11" kerning="0" fill="#000000"> </tspan>
      </text>
      <g>
        <path d="M94.934,110.191 L148.831,110.191 L148.831,85.039 L94.934,85.039 z" fill="#5B9BD5"/>
        <path d="M95.434,110.691 L149.331,110.691 L149.331,85.539 L95.434,85.539 z" fill-opacity="0" stroke="#FFFFFF" stroke-width="0.499" stroke-linecap="round" stroke-linejoin="round"/>
        <path d="M109.177,98.939 Q109.177,99.535 108.954,99.986 Q108.732,100.436 108.352,100.737 Q107.972,101.038 107.463,101.19 Q106.954,101.342 106.375,101.342 Q105.983,101.342 105.647,101.278 Q105.311,101.214 105.053,101.123 Q104.796,101.032 104.624,100.933 Q104.451,100.834 104.375,100.757 Q104.299,100.681 104.267,100.538 Q104.235,100.395 104.235,100.126 Q104.235,99.945 104.246,99.822 Q104.258,99.699 104.284,99.623 Q104.311,99.547 104.355,99.515 Q104.398,99.483 104.457,99.483 Q104.539,99.483 104.688,99.579 Q104.837,99.676 105.071,99.793 Q105.305,99.909 105.63,100.006 Q105.954,100.102 106.381,100.102 Q106.662,100.102 106.884,100.035 Q107.106,99.968 107.261,99.845 Q107.416,99.722 107.498,99.541 Q107.58,99.36 107.58,99.137 Q107.58,98.88 107.44,98.696 Q107.299,98.512 107.074,98.368 Q106.849,98.225 106.562,98.099 Q106.276,97.974 105.972,97.833 Q105.668,97.693 105.381,97.515 Q105.094,97.336 104.869,97.088 Q104.644,96.839 104.504,96.5 Q104.363,96.161 104.363,95.687 Q104.363,95.143 104.565,94.731 Q104.767,94.318 105.109,94.047 Q105.451,93.775 105.916,93.64 Q106.381,93.506 106.902,93.506 Q107.171,93.506 107.44,93.546 Q107.709,93.587 107.943,93.658 Q108.176,93.728 108.358,93.816 Q108.539,93.903 108.598,93.962 Q108.656,94.02 108.676,94.061 Q108.697,94.102 108.712,94.169 Q108.726,94.237 108.732,94.339 Q108.738,94.441 108.738,94.593 Q108.738,94.763 108.729,94.88 Q108.72,94.997 108.7,95.073 Q108.679,95.149 108.641,95.184 Q108.603,95.219 108.539,95.219 Q108.475,95.219 108.334,95.137 Q108.194,95.055 107.989,94.959 Q107.785,94.862 107.516,94.783 Q107.247,94.704 106.925,94.704 Q106.673,94.704 106.486,94.766 Q106.299,94.827 106.173,94.935 Q106.048,95.044 105.986,95.196 Q105.925,95.348 105.925,95.517 Q105.925,95.769 106.062,95.953 Q106.2,96.137 106.431,96.281 Q106.662,96.424 106.954,96.55 Q107.247,96.675 107.551,96.816 Q107.855,96.956 108.147,97.134 Q108.44,97.313 108.668,97.561 Q108.896,97.81 109.036,98.146 Q109.177,98.482 109.177,98.939 z" fill="#FFFFFF"/>
        <path d="M113.288,101.208 L112.656,103.056 Q112.603,103.202 112.37,103.266 Q112.136,103.331 111.685,103.331 Q111.451,103.331 111.311,103.31 Q111.171,103.29 111.1,103.243 Q111.03,103.196 111.024,103.126 Q111.019,103.056 111.06,102.956 L111.755,101.208 Q111.679,101.173 111.618,101.1 Q111.557,101.027 111.527,100.945 L109.732,96.149 Q109.656,95.944 109.656,95.836 Q109.656,95.728 109.726,95.667 Q109.796,95.605 109.963,95.582 Q110.13,95.558 110.404,95.558 Q110.656,95.558 110.802,95.567 Q110.948,95.576 111.03,95.611 Q111.112,95.646 111.153,95.719 Q111.194,95.792 111.235,95.927 L112.463,99.418 L112.481,99.418 L113.604,95.857 Q113.639,95.705 113.694,95.655 Q113.75,95.605 113.878,95.582 Q114.007,95.558 114.329,95.558 Q114.58,95.558 114.747,95.582 Q114.914,95.605 114.993,95.669 Q115.071,95.734 115.071,95.842 Q115.071,95.95 115.025,96.096 z" fill="#FFFFFF"/>
        <path d="M119.61,99.535 Q119.61,99.98 119.443,100.319 Q119.276,100.658 118.972,100.886 Q118.668,101.114 118.253,101.228 Q117.838,101.342 117.352,101.342 Q117.06,101.342 116.794,101.298 Q116.528,101.255 116.317,101.187 Q116.106,101.12 115.966,101.05 Q115.826,100.98 115.761,100.918 Q115.697,100.857 115.662,100.725 Q115.627,100.594 115.627,100.336 Q115.627,100.167 115.639,100.064 Q115.65,99.962 115.674,99.901 Q115.697,99.839 115.732,99.819 Q115.767,99.798 115.82,99.798 Q115.884,99.798 116.01,99.871 Q116.136,99.945 116.323,100.032 Q116.51,100.12 116.759,100.196 Q117.007,100.272 117.323,100.272 Q117.522,100.272 117.677,100.231 Q117.832,100.19 117.946,100.114 Q118.06,100.038 118.118,99.921 Q118.177,99.804 118.177,99.652 Q118.177,99.477 118.069,99.351 Q117.96,99.225 117.782,99.132 Q117.604,99.038 117.378,98.956 Q117.153,98.874 116.916,98.775 Q116.68,98.675 116.454,98.547 Q116.229,98.418 116.051,98.231 Q115.872,98.044 115.764,97.781 Q115.656,97.518 115.656,97.149 Q115.656,96.775 115.802,96.462 Q115.949,96.149 116.223,95.927 Q116.498,95.705 116.893,95.582 Q117.288,95.459 117.779,95.459 Q118.025,95.459 118.256,95.494 Q118.487,95.529 118.674,95.582 Q118.861,95.634 118.99,95.696 Q119.118,95.757 119.174,95.801 Q119.229,95.845 119.253,95.889 Q119.276,95.933 119.288,95.994 Q119.3,96.055 119.308,96.146 Q119.317,96.237 119.317,96.371 Q119.317,96.529 119.308,96.629 Q119.3,96.728 119.279,96.786 Q119.259,96.845 119.224,96.865 Q119.188,96.886 119.142,96.886 Q119.089,96.886 118.978,96.824 Q118.867,96.763 118.7,96.693 Q118.533,96.623 118.314,96.561 Q118.095,96.5 117.814,96.5 Q117.615,96.5 117.469,96.541 Q117.323,96.582 117.229,96.658 Q117.136,96.734 117.089,96.836 Q117.042,96.939 117.042,97.055 Q117.042,97.237 117.153,97.36 Q117.264,97.482 117.446,97.576 Q117.627,97.67 117.858,97.751 Q118.089,97.833 118.326,97.93 Q118.563,98.026 118.794,98.155 Q119.025,98.284 119.206,98.471 Q119.387,98.658 119.498,98.918 Q119.61,99.178 119.61,99.535 z" fill="#FFFFFF"/>
        <path d="M123.803,100.494 Q123.803,100.752 123.77,100.889 Q123.738,101.027 123.686,101.082 Q123.633,101.138 123.531,101.181 Q123.428,101.225 123.291,101.258 Q123.153,101.29 122.993,101.307 Q122.832,101.325 122.668,101.325 Q122.229,101.325 121.908,101.214 Q121.586,101.103 121.375,100.872 Q121.165,100.641 121.066,100.29 Q120.966,99.939 120.966,99.459 L120.966,96.786 L120.34,96.786 Q120.229,96.786 120.171,96.649 Q120.112,96.512 120.112,96.19 Q120.112,96.02 120.127,95.903 Q120.141,95.786 120.171,95.719 Q120.2,95.652 120.244,95.623 Q120.288,95.593 120.346,95.593 L120.966,95.593 L120.966,94.43 Q120.966,94.371 120.998,94.324 Q121.03,94.278 121.115,94.245 Q121.2,94.213 121.343,94.199 Q121.487,94.184 121.697,94.184 Q121.914,94.184 122.057,94.199 Q122.2,94.213 122.282,94.245 Q122.364,94.278 122.399,94.324 Q122.434,94.371 122.434,94.43 L122.434,95.593 L123.569,95.593 Q123.627,95.593 123.671,95.623 Q123.715,95.652 123.744,95.719 Q123.773,95.786 123.788,95.903 Q123.803,96.02 123.803,96.19 Q123.803,96.512 123.744,96.649 Q123.686,96.786 123.574,96.786 L122.434,96.786 L122.434,99.237 Q122.434,99.664 122.569,99.877 Q122.703,100.091 123.048,100.091 Q123.165,100.091 123.259,100.07 Q123.352,100.05 123.425,100.024 Q123.498,99.997 123.548,99.977 Q123.598,99.956 123.639,99.956 Q123.674,99.956 123.706,99.977 Q123.738,99.997 123.756,100.059 Q123.773,100.12 123.788,100.225 Q123.803,100.331 123.803,100.494 z" fill="#FFFFFF"/>
        <path d="M129.686,98.249 Q129.686,98.518 129.566,98.646 Q129.446,98.775 129.236,98.775 L126.06,98.775 Q126.06,99.108 126.139,99.38 Q126.218,99.652 126.39,99.842 Q126.563,100.032 126.835,100.132 Q127.107,100.231 127.487,100.231 Q127.873,100.231 128.165,100.176 Q128.458,100.12 128.671,100.053 Q128.885,99.986 129.025,99.93 Q129.165,99.874 129.253,99.874 Q129.306,99.874 129.341,99.895 Q129.376,99.915 129.399,99.968 Q129.423,100.021 129.431,100.117 Q129.44,100.214 129.44,100.36 Q129.44,100.488 129.434,100.579 Q129.429,100.67 129.417,100.734 Q129.405,100.798 129.382,100.842 Q129.358,100.886 129.32,100.927 Q129.282,100.968 129.113,101.038 Q128.943,101.108 128.68,101.176 Q128.417,101.243 128.078,101.293 Q127.738,101.342 127.352,101.342 Q126.656,101.342 126.133,101.167 Q125.61,100.991 125.259,100.635 Q124.908,100.278 124.735,99.734 Q124.563,99.19 124.563,98.459 Q124.563,97.763 124.744,97.205 Q124.925,96.646 125.27,96.257 Q125.615,95.868 126.11,95.664 Q126.604,95.459 127.224,95.459 Q127.879,95.459 128.344,95.652 Q128.809,95.845 129.107,96.187 Q129.405,96.529 129.546,96.997 Q129.686,97.465 129.686,98.015 z M128.259,97.827 Q128.276,97.208 128.01,96.854 Q127.744,96.5 127.189,96.5 Q126.908,96.5 126.7,96.605 Q126.493,96.71 126.355,96.889 Q126.218,97.067 126.145,97.31 Q126.072,97.553 126.06,97.827 z" fill="#FFFFFF"/>
        <path d="M139.195,101.009 Q139.195,101.067 139.16,101.111 Q139.125,101.155 139.043,101.184 Q138.961,101.214 138.821,101.228 Q138.68,101.243 138.464,101.243 Q138.242,101.243 138.102,101.228 Q137.961,101.214 137.876,101.184 Q137.792,101.155 137.759,101.111 Q137.727,101.067 137.727,101.009 L137.727,97.915 Q137.727,97.652 137.677,97.436 Q137.628,97.219 137.525,97.064 Q137.423,96.909 137.268,96.824 Q137.113,96.74 136.897,96.74 Q136.634,96.74 136.365,96.944 Q136.096,97.149 135.78,97.541 L135.78,101.009 Q135.78,101.067 135.745,101.111 Q135.71,101.155 135.625,101.184 Q135.54,101.214 135.4,101.228 Q135.259,101.243 135.049,101.243 Q134.832,101.243 134.692,101.228 Q134.552,101.214 134.467,101.184 Q134.382,101.155 134.347,101.111 Q134.312,101.067 134.312,101.009 L134.312,97.915 Q134.312,97.652 134.262,97.436 Q134.212,97.219 134.113,97.064 Q134.014,96.909 133.856,96.824 Q133.698,96.74 133.487,96.74 Q133.218,96.74 132.949,96.944 Q132.68,97.149 132.37,97.541 L132.37,101.009 Q132.37,101.067 132.335,101.111 Q132.3,101.155 132.215,101.184 Q132.13,101.214 131.99,101.228 Q131.85,101.243 131.633,101.243 Q131.417,101.243 131.276,101.228 Q131.136,101.214 131.051,101.184 Q130.967,101.155 130.931,101.111 Q130.896,101.067 130.896,101.009 L130.896,95.792 Q130.896,95.734 130.926,95.69 Q130.955,95.646 131.031,95.617 Q131.107,95.588 131.227,95.573 Q131.347,95.558 131.528,95.558 Q131.715,95.558 131.838,95.573 Q131.961,95.588 132.028,95.617 Q132.095,95.646 132.124,95.69 Q132.154,95.734 132.154,95.792 L132.154,96.395 Q132.587,95.927 133.016,95.693 Q133.446,95.459 133.914,95.459 Q134.236,95.459 134.493,95.526 Q134.75,95.593 134.952,95.719 Q135.154,95.845 135.3,96.02 Q135.446,96.196 135.546,96.412 Q135.78,96.161 136.005,95.979 Q136.23,95.798 136.449,95.684 Q136.669,95.57 136.888,95.514 Q137.107,95.459 137.335,95.459 Q137.856,95.459 138.213,95.634 Q138.569,95.81 138.789,96.111 Q139.008,96.412 139.102,96.816 Q139.195,97.219 139.195,97.67 z" fill="#FFFFFF"/>
        <path d="M116.492,76.136 L116.492,58.17 L116.492,65.356 L112.899,65.356 L112.899,50.984 L114.695,49.187 L129.068,49.187 L130.864,50.984 L130.864,65.356 L127.271,65.356 L127.271,58.17 L127.271,76.136 L121.882,76.136 L121.882,61.763 L121.882,76.136 L116.492,76.136 z M125.475,43.797 C125.475,41.811 123.868,40.204 121.882,40.204 C119.895,40.204 118.288,41.811 118.288,43.797 C118.288,45.774 119.895,47.391 121.882,47.391 C123.868,47.391 125.475,45.774 125.475,43.797 z" fill="#5B9BD5"/>
        <path d="M116.992,76.636 L116.992,58.67 L116.992,65.856 L113.399,65.856 L113.399,51.484 L115.195,49.687 L129.568,49.687 L131.364,51.484 L131.364,65.856 L127.771,65.856 L127.771,58.67 L127.771,76.636 L122.382,76.636 L122.382,62.263 L122.382,76.636 L116.992,76.636 z M125.975,44.297 C125.975,42.311 124.368,40.704 122.382,40.704 C120.395,40.704 118.788,42.311 118.788,44.297 C118.788,46.274 120.395,47.891 122.382,47.891 C124.368,47.891 125.975,46.274 125.975,44.297 z" fill-opacity="0" stroke="#FFFFFF" stroke-width="0.499" stroke-linecap="round" stroke-linejoin="round"/>
        <path d="M122.382,116.001 L122.382,367.676" fill-opacity="0" stroke="#5692C9" stroke-width="0.499" stroke-dasharray="3.493,2.495" stroke-linecap="round" stroke-linejoin="round"/>
        <path d="M51.609,115.501 L192.158,115.501 L192.158,79.724 L51.609,79.724 z" fill="#5B9BD5"/>
        <path d="M52.109,116.001 L192.658,116.001 L192.658,80.224 L52.109,80.224 z" fill-opacity="0" stroke="#FFFFFF" stroke-width="0.499" stroke-linecap="round" stroke-linejoin="round"/>
        <path d="M117.444,98.389 Q117.444,99.085 117.239,99.635 Q117.035,100.184 116.637,100.564 Q116.239,100.945 115.654,101.143 Q115.07,101.342 114.309,101.342 Q113.596,101.342 113.029,101.164 Q112.461,100.986 112.069,100.623 Q111.678,100.26 111.47,99.719 Q111.262,99.178 111.262,98.453 L111.262,93.851 Q111.262,93.792 111.297,93.745 Q111.333,93.699 111.423,93.669 Q111.514,93.64 111.66,93.623 Q111.806,93.605 112.034,93.605 Q112.257,93.605 112.403,93.623 Q112.549,93.64 112.637,93.669 Q112.724,93.699 112.762,93.745 Q112.8,93.792 112.8,93.851 L112.8,98.319 Q112.8,98.769 112.912,99.099 Q113.023,99.43 113.23,99.646 Q113.438,99.863 113.727,99.971 Q114.017,100.079 114.374,100.079 Q114.736,100.079 115.023,99.968 Q115.309,99.857 115.508,99.643 Q115.707,99.43 115.815,99.117 Q115.923,98.804 115.923,98.406 L115.923,93.851 Q115.923,93.792 115.959,93.745 Q115.994,93.699 116.081,93.669 Q116.169,93.64 116.318,93.623 Q116.467,93.605 116.69,93.605 Q116.912,93.605 117.055,93.623 Q117.198,93.64 117.286,93.669 Q117.374,93.699 117.409,93.745 Q117.444,93.792 117.444,93.851 z" fill="#FFFFFF"/>
        <path d="M122.672,99.535 Q122.672,99.98 122.506,100.319 Q122.339,100.658 122.035,100.886 Q121.731,101.114 121.316,101.228 Q120.9,101.342 120.415,101.342 Q120.123,101.342 119.857,101.298 Q119.59,101.255 119.38,101.187 Q119.169,101.12 119.029,101.05 Q118.889,100.98 118.824,100.918 Q118.76,100.857 118.725,100.725 Q118.69,100.594 118.69,100.336 Q118.69,100.167 118.701,100.064 Q118.713,99.962 118.737,99.901 Q118.76,99.839 118.795,99.819 Q118.83,99.798 118.883,99.798 Q118.947,99.798 119.073,99.871 Q119.199,99.945 119.386,100.032 Q119.573,100.12 119.821,100.196 Q120.07,100.272 120.386,100.272 Q120.585,100.272 120.74,100.231 Q120.895,100.19 121.009,100.114 Q121.123,100.038 121.181,99.921 Q121.24,99.804 121.24,99.652 Q121.24,99.477 121.131,99.351 Q121.023,99.225 120.845,99.132 Q120.667,99.038 120.441,98.956 Q120.216,98.874 119.979,98.775 Q119.742,98.675 119.517,98.547 Q119.292,98.418 119.114,98.231 Q118.935,98.044 118.827,97.781 Q118.719,97.518 118.719,97.149 Q118.719,96.775 118.865,96.462 Q119.011,96.149 119.286,95.927 Q119.561,95.705 119.956,95.582 Q120.351,95.459 120.842,95.459 Q121.088,95.459 121.319,95.494 Q121.55,95.529 121.737,95.582 Q121.924,95.634 122.053,95.696 Q122.181,95.757 122.237,95.801 Q122.292,95.845 122.316,95.889 Q122.339,95.933 122.351,95.994 Q122.363,96.055 122.371,96.146 Q122.38,96.237 122.38,96.371 Q122.38,96.529 122.371,96.629 Q122.363,96.728 122.342,96.786 Q122.322,96.845 122.286,96.865 Q122.251,96.886 122.205,96.886 Q122.152,96.886 122.041,96.824 Q121.93,96.763 121.763,96.693 Q121.596,96.623 121.377,96.561 Q121.158,96.5 120.877,96.5 Q120.678,96.5 120.532,96.541 Q120.386,96.582 120.292,96.658 Q120.199,96.734 120.152,96.836 Q120.105,96.939 120.105,97.055 Q120.105,97.237 120.216,97.36 Q120.327,97.482 120.509,97.576 Q120.69,97.67 120.921,97.751 Q121.152,97.833 121.389,97.93 Q121.626,98.026 121.857,98.155 Q122.088,98.284 122.269,98.471 Q122.45,98.658 122.561,98.918 Q122.672,99.178 122.672,99.535 z" fill="#FFFFFF"/>
        <path d="M128.597,98.249 Q128.597,98.518 128.477,98.646 Q128.357,98.775 128.146,98.775 L124.971,98.775 Q124.971,99.108 125.05,99.38 Q125.129,99.652 125.301,99.842 Q125.474,100.032 125.746,100.132 Q126.017,100.231 126.398,100.231 Q126.784,100.231 127.076,100.176 Q127.368,100.12 127.582,100.053 Q127.795,99.986 127.936,99.93 Q128.076,99.874 128.164,99.874 Q128.216,99.874 128.252,99.895 Q128.287,99.915 128.31,99.968 Q128.333,100.021 128.342,100.117 Q128.351,100.214 128.351,100.36 Q128.351,100.488 128.345,100.579 Q128.339,100.67 128.328,100.734 Q128.316,100.798 128.292,100.842 Q128.269,100.886 128.231,100.927 Q128.193,100.968 128.023,101.038 Q127.854,101.108 127.591,101.176 Q127.327,101.243 126.988,101.293 Q126.649,101.342 126.263,101.342 Q125.567,101.342 125.044,101.167 Q124.52,100.991 124.169,100.635 Q123.818,100.278 123.646,99.734 Q123.473,99.19 123.473,98.459 Q123.473,97.763 123.655,97.205 Q123.836,96.646 124.181,96.257 Q124.526,95.868 125.02,95.664 Q125.514,95.459 126.134,95.459 Q126.789,95.459 127.254,95.652 Q127.719,95.845 128.018,96.187 Q128.316,96.529 128.456,96.997 Q128.597,97.465 128.597,98.015 z M127.17,97.827 Q127.187,97.208 126.921,96.854 Q126.655,96.5 126.099,96.5 Q125.819,96.5 125.611,96.605 Q125.403,96.71 125.266,96.889 Q125.129,97.067 125.055,97.31 Q124.982,97.553 124.971,97.827 z" fill="#FFFFFF"/>
        <path d="M133.158,96.278 Q133.158,96.488 133.146,96.623 Q133.135,96.757 133.111,96.833 Q133.088,96.909 133.05,96.939 Q133.012,96.968 132.953,96.968 Q132.907,96.968 132.848,96.947 Q132.79,96.927 132.717,96.903 Q132.643,96.88 132.556,96.86 Q132.468,96.839 132.363,96.839 Q132.24,96.839 132.117,96.889 Q131.994,96.939 131.863,97.044 Q131.731,97.149 131.588,97.325 Q131.445,97.5 131.281,97.757 L131.281,101.009 Q131.281,101.067 131.246,101.111 Q131.211,101.155 131.126,101.184 Q131.041,101.214 130.901,101.228 Q130.76,101.243 130.544,101.243 Q130.328,101.243 130.187,101.228 Q130.047,101.214 129.962,101.184 Q129.877,101.155 129.842,101.111 Q129.807,101.067 129.807,101.009 L129.807,95.792 Q129.807,95.734 129.836,95.69 Q129.866,95.646 129.942,95.617 Q130.018,95.588 130.137,95.573 Q130.257,95.558 130.439,95.558 Q130.626,95.558 130.749,95.573 Q130.871,95.588 130.939,95.617 Q131.006,95.646 131.035,95.69 Q131.064,95.734 131.064,95.792 L131.064,96.441 Q131.269,96.149 131.45,95.959 Q131.632,95.769 131.795,95.658 Q131.959,95.547 132.123,95.503 Q132.287,95.459 132.45,95.459 Q132.527,95.459 132.614,95.468 Q132.702,95.476 132.796,95.497 Q132.889,95.517 132.959,95.544 Q133.029,95.57 133.062,95.599 Q133.094,95.629 133.108,95.664 Q133.123,95.699 133.135,95.76 Q133.146,95.821 133.152,95.944 Q133.158,96.067 133.158,96.278 z" fill="#FFFFFF"/>
        <path d="M333.206,76.636 C333.206,76.636 333.206,76.636 333.206,76.636 C333.206,76.636 333.206,76.636 333.206,76.636 C333.206,76.636 333.206,76.636 333.206,76.636 C333.206,76.636 333.206,76.636 333.206,76.636 z" fill-opacity="0" stroke="#FFFFFF" stroke-width="0.499" stroke-linecap="round" stroke-linejoin="round"/>
        <path d="M333.206,116.001 L333.206,367.676" fill-opacity="0" stroke="#5692C9" stroke-width="0.499" stroke-dasharray="3.493,2.495" stroke-linecap="round" stroke-linejoin="round"/>
        <path d="M294.37,115.501 L371.032,115.501 L371.032,79.724 L294.37,79.724 z" fill="#5B9BD5"/>
        <path d="M294.87,116.001 L371.532,116.001 L371.532,80.224 L294.87,80.224 z" fill-opacity="0" stroke="#FFFFFF" stroke-width="0.499" stroke-linecap="round" stroke-linejoin="round"/>
        <path d="M320.001,98.939 Q320.001,99.535 319.779,99.986 Q319.557,100.436 319.176,100.737 Q318.796,101.038 318.288,101.19 Q317.779,101.342 317.2,101.342 Q316.808,101.342 316.472,101.278 Q316.135,101.214 315.878,101.123 Q315.621,101.032 315.448,100.933 Q315.276,100.834 315.2,100.757 Q315.124,100.681 315.091,100.538 Q315.059,100.395 315.059,100.126 Q315.059,99.945 315.071,99.822 Q315.083,99.699 315.109,99.623 Q315.135,99.547 315.179,99.515 Q315.223,99.483 315.281,99.483 Q315.363,99.483 315.512,99.579 Q315.662,99.676 315.896,99.793 Q316.129,99.909 316.454,100.006 Q316.779,100.102 317.206,100.102 Q317.486,100.102 317.709,100.035 Q317.931,99.968 318.086,99.845 Q318.241,99.722 318.323,99.541 Q318.404,99.36 318.404,99.137 Q318.404,98.88 318.264,98.696 Q318.124,98.512 317.899,98.368 Q317.673,98.225 317.387,98.099 Q317.1,97.974 316.796,97.833 Q316.492,97.693 316.206,97.515 Q315.919,97.336 315.694,97.088 Q315.469,96.839 315.328,96.5 Q315.188,96.161 315.188,95.687 Q315.188,95.143 315.39,94.731 Q315.591,94.318 315.934,94.047 Q316.276,93.775 316.741,93.64 Q317.206,93.506 317.726,93.506 Q317.995,93.506 318.264,93.546 Q318.533,93.587 318.767,93.658 Q319.001,93.728 319.182,93.816 Q319.364,93.903 319.422,93.962 Q319.481,94.02 319.501,94.061 Q319.522,94.102 319.536,94.169 Q319.551,94.237 319.557,94.339 Q319.562,94.441 319.562,94.593 Q319.562,94.763 319.554,94.88 Q319.545,94.997 319.524,95.073 Q319.504,95.149 319.466,95.184 Q319.428,95.219 319.364,95.219 Q319.299,95.219 319.159,95.137 Q319.019,95.055 318.814,94.959 Q318.609,94.862 318.34,94.783 Q318.071,94.704 317.749,94.704 Q317.498,94.704 317.311,94.766 Q317.124,94.827 316.998,94.935 Q316.872,95.044 316.811,95.196 Q316.749,95.348 316.749,95.517 Q316.749,95.769 316.887,95.953 Q317.024,96.137 317.255,96.281 Q317.486,96.424 317.779,96.55 Q318.071,96.675 318.375,96.816 Q318.679,96.956 318.972,97.134 Q319.264,97.313 319.492,97.561 Q319.72,97.81 319.861,98.146 Q320.001,98.482 320.001,98.939 z" fill="#FFFFFF"/>
        <path d="M324.112,101.208 L323.481,103.056 Q323.428,103.202 323.194,103.266 Q322.96,103.331 322.51,103.331 Q322.276,103.331 322.136,103.31 Q321.995,103.29 321.925,103.243 Q321.855,103.196 321.849,103.126 Q321.843,103.056 321.884,102.956 L322.58,101.208 Q322.504,101.173 322.443,101.1 Q322.381,101.027 322.352,100.945 L320.556,96.149 Q320.48,95.944 320.48,95.836 Q320.48,95.728 320.551,95.667 Q320.621,95.605 320.788,95.582 Q320.954,95.558 321.229,95.558 Q321.481,95.558 321.627,95.567 Q321.773,95.576 321.855,95.611 Q321.937,95.646 321.978,95.719 Q322.019,95.792 322.06,95.927 L323.288,99.418 L323.305,99.418 L324.428,95.857 Q324.463,95.705 324.519,95.655 Q324.574,95.605 324.703,95.582 Q324.832,95.558 325.153,95.558 Q325.405,95.558 325.571,95.582 Q325.738,95.605 325.817,95.669 Q325.896,95.734 325.896,95.842 Q325.896,95.95 325.849,96.096 z" fill="#FFFFFF"/>
        <path d="M330.434,99.535 Q330.434,99.98 330.267,100.319 Q330.101,100.658 329.797,100.886 Q329.493,101.114 329.077,101.228 Q328.662,101.342 328.177,101.342 Q327.884,101.342 327.618,101.298 Q327.352,101.255 327.142,101.187 Q326.931,101.12 326.791,101.05 Q326.65,100.98 326.586,100.918 Q326.522,100.857 326.487,100.725 Q326.451,100.594 326.451,100.336 Q326.451,100.167 326.463,100.064 Q326.475,99.962 326.498,99.901 Q326.522,99.839 326.557,99.819 Q326.592,99.798 326.644,99.798 Q326.709,99.798 326.835,99.871 Q326.96,99.945 327.147,100.032 Q327.335,100.12 327.583,100.196 Q327.832,100.272 328.147,100.272 Q328.346,100.272 328.501,100.231 Q328.656,100.19 328.77,100.114 Q328.884,100.038 328.943,99.921 Q329.001,99.804 329.001,99.652 Q329.001,99.477 328.893,99.351 Q328.785,99.225 328.607,99.132 Q328.428,99.038 328.203,98.956 Q327.978,98.874 327.741,98.775 Q327.504,98.675 327.279,98.547 Q327.054,98.418 326.875,98.231 Q326.697,98.044 326.589,97.781 Q326.481,97.518 326.481,97.149 Q326.481,96.775 326.627,96.462 Q326.773,96.149 327.048,95.927 Q327.323,95.705 327.718,95.582 Q328.112,95.459 328.604,95.459 Q328.849,95.459 329.08,95.494 Q329.311,95.529 329.498,95.582 Q329.686,95.634 329.814,95.696 Q329.943,95.757 329.998,95.801 Q330.054,95.845 330.077,95.889 Q330.101,95.933 330.112,95.994 Q330.124,96.055 330.133,96.146 Q330.142,96.237 330.142,96.371 Q330.142,96.529 330.133,96.629 Q330.124,96.728 330.104,96.786 Q330.083,96.845 330.048,96.865 Q330.013,96.886 329.966,96.886 Q329.914,96.886 329.803,96.824 Q329.691,96.763 329.525,96.693 Q329.358,96.623 329.139,96.561 Q328.919,96.5 328.639,96.5 Q328.44,96.5 328.294,96.541 Q328.147,96.582 328.054,96.658 Q327.96,96.734 327.914,96.836 Q327.867,96.939 327.867,97.055 Q327.867,97.237 327.978,97.36 Q328.089,97.482 328.27,97.576 Q328.452,97.67 328.683,97.751 Q328.914,97.833 329.15,97.93 Q329.387,98.026 329.618,98.155 Q329.849,98.284 330.031,98.471 Q330.212,98.658 330.323,98.918 Q330.434,99.178 330.434,99.535 z" fill="#FFFFFF"/>
        <path d="M334.627,100.494 Q334.627,100.752 334.595,100.889 Q334.563,101.027 334.51,101.082 Q334.458,101.138 334.355,101.181 Q334.253,101.225 334.115,101.258 Q333.978,101.29 333.817,101.307 Q333.656,101.325 333.493,101.325 Q333.054,101.325 332.732,101.214 Q332.411,101.103 332.2,100.872 Q331.99,100.641 331.89,100.29 Q331.791,99.939 331.791,99.459 L331.791,96.786 L331.165,96.786 Q331.054,96.786 330.995,96.649 Q330.937,96.512 330.937,96.19 Q330.937,96.02 330.951,95.903 Q330.966,95.786 330.995,95.719 Q331.025,95.652 331.068,95.623 Q331.112,95.593 331.171,95.593 L331.791,95.593 L331.791,94.43 Q331.791,94.371 331.823,94.324 Q331.855,94.278 331.94,94.245 Q332.025,94.213 332.168,94.199 Q332.311,94.184 332.522,94.184 Q332.738,94.184 332.881,94.199 Q333.025,94.213 333.107,94.245 Q333.188,94.278 333.224,94.324 Q333.259,94.371 333.259,94.43 L333.259,95.593 L334.393,95.593 Q334.452,95.593 334.496,95.623 Q334.539,95.652 334.569,95.719 Q334.598,95.786 334.612,95.903 Q334.627,96.02 334.627,96.19 Q334.627,96.512 334.569,96.649 Q334.51,96.786 334.399,96.786 L333.259,96.786 L333.259,99.237 Q333.259,99.664 333.393,99.877 Q333.528,100.091 333.873,100.091 Q333.99,100.091 334.083,100.07 Q334.177,100.05 334.25,100.024 Q334.323,99.997 334.373,99.977 Q334.422,99.956 334.463,99.956 Q334.498,99.956 334.531,99.977 Q334.563,99.997 334.58,100.059 Q334.598,100.12 334.612,100.225 Q334.627,100.331 334.627,100.494 z" fill="#FFFFFF"/>
        <path d="M340.51,98.249 Q340.51,98.518 340.391,98.646 Q340.271,98.775 340.06,98.775 L336.884,98.775 Q336.884,99.108 336.963,99.38 Q337.042,99.652 337.215,99.842 Q337.387,100.032 337.659,100.132 Q337.931,100.231 338.311,100.231 Q338.697,100.231 338.99,100.176 Q339.282,100.12 339.496,100.053 Q339.709,99.986 339.85,99.93 Q339.99,99.874 340.078,99.874 Q340.13,99.874 340.165,99.895 Q340.2,99.915 340.224,99.968 Q340.247,100.021 340.256,100.117 Q340.265,100.214 340.265,100.36 Q340.265,100.488 340.259,100.579 Q340.253,100.67 340.241,100.734 Q340.23,100.798 340.206,100.842 Q340.183,100.886 340.145,100.927 Q340.107,100.968 339.937,101.038 Q339.768,101.108 339.505,101.176 Q339.241,101.243 338.902,101.293 Q338.563,101.342 338.177,101.342 Q337.481,101.342 336.958,101.167 Q336.434,100.991 336.083,100.635 Q335.732,100.278 335.56,99.734 Q335.387,99.19 335.387,98.459 Q335.387,97.763 335.569,97.205 Q335.75,96.646 336.095,96.257 Q336.44,95.868 336.934,95.664 Q337.428,95.459 338.048,95.459 Q338.703,95.459 339.168,95.652 Q339.633,95.845 339.931,96.187 Q340.23,96.529 340.37,96.997 Q340.51,97.465 340.51,98.015 z M339.083,97.827 Q339.101,97.208 338.835,96.854 Q338.569,96.5 338.013,96.5 Q337.732,96.5 337.525,96.605 Q337.317,96.71 337.18,96.889 Q337.042,97.067 336.969,97.31 Q336.896,97.553 336.884,97.827 z" fill="#FFFFFF"/>
        <path d="M350.02,101.009 Q350.02,101.067 349.985,101.111 Q349.95,101.155 349.868,101.184 Q349.786,101.214 349.645,101.228 Q349.505,101.243 349.289,101.243 Q349.066,101.243 348.926,101.228 Q348.786,101.214 348.701,101.184 Q348.616,101.155 348.584,101.111 Q348.552,101.067 348.552,101.009 L348.552,97.915 Q348.552,97.652 348.502,97.436 Q348.452,97.219 348.35,97.064 Q348.248,96.909 348.093,96.824 Q347.938,96.74 347.721,96.74 Q347.458,96.74 347.189,96.944 Q346.92,97.149 346.604,97.541 L346.604,101.009 Q346.604,101.067 346.569,101.111 Q346.534,101.155 346.449,101.184 Q346.365,101.214 346.224,101.228 Q346.084,101.243 345.873,101.243 Q345.657,101.243 345.516,101.228 Q345.376,101.214 345.291,101.184 Q345.207,101.155 345.171,101.111 Q345.136,101.067 345.136,101.009 L345.136,97.915 Q345.136,97.652 345.087,97.436 Q345.037,97.219 344.938,97.064 Q344.838,96.909 344.68,96.824 Q344.522,96.74 344.312,96.74 Q344.043,96.74 343.774,96.944 Q343.505,97.149 343.195,97.541 L343.195,101.009 Q343.195,101.067 343.16,101.111 Q343.125,101.155 343.04,101.184 Q342.955,101.214 342.815,101.228 Q342.674,101.243 342.458,101.243 Q342.241,101.243 342.101,101.228 Q341.961,101.214 341.876,101.184 Q341.791,101.155 341.756,101.111 Q341.721,101.067 341.721,101.009 L341.721,95.792 Q341.721,95.734 341.75,95.69 Q341.779,95.646 341.855,95.617 Q341.931,95.588 342.051,95.573 Q342.171,95.558 342.353,95.558 Q342.54,95.558 342.663,95.573 Q342.785,95.588 342.853,95.617 Q342.92,95.646 342.949,95.69 Q342.978,95.734 342.978,95.792 L342.978,96.395 Q343.411,95.927 343.841,95.693 Q344.271,95.459 344.739,95.459 Q345.06,95.459 345.318,95.526 Q345.575,95.593 345.777,95.719 Q345.979,95.845 346.125,96.02 Q346.271,96.196 346.37,96.412 Q346.604,96.161 346.829,95.979 Q347.055,95.798 347.274,95.684 Q347.493,95.57 347.713,95.514 Q347.932,95.459 348.16,95.459 Q348.68,95.459 349.037,95.634 Q349.394,95.81 349.613,96.111 Q349.833,96.412 349.926,96.816 Q350.02,97.219 350.02,97.67 z" fill="#FFFFFF"/>
        <path d="M122.382,151.932 L326.669,151.932" fill-opacity="0" stroke="#6CA43E" stroke-width="0.499" stroke-linecap="round" stroke-linejoin="round"/>
        <path d="M325.241,147.699 L332.706,151.432 L325.241,155.165 L325.241,147.699 z" fill="#6CA43E"/>
        <path d="M200.8,156.223 L253.787,156.223 L253.787,146.641 L200.8,146.641 z" fill="#FFFFFF"/>
        <path d="M204.796,152.381 Q204.796,152.619 204.736,152.82 Q204.675,153.02 204.566,153.18 Q204.457,153.34 204.303,153.461 Q204.149,153.582 203.956,153.664 Q203.763,153.746 203.543,153.786 Q203.322,153.827 203.038,153.827 L201.72,153.827 Q201.63,153.827 201.55,153.767 Q201.47,153.707 201.47,153.554 L201.47,149.055 Q201.47,148.903 201.55,148.843 Q201.63,148.782 201.72,148.782 L202.866,148.782 Q203.318,148.782 203.607,148.868 Q203.895,148.954 204.088,149.118 Q204.281,149.281 204.379,149.519 Q204.476,149.757 204.476,150.057 Q204.476,150.237 204.433,150.4 Q204.391,150.564 204.307,150.703 Q204.223,150.841 204.096,150.95 Q203.97,151.059 203.806,151.129 Q204.012,151.168 204.192,151.272 Q204.371,151.375 204.506,151.535 Q204.64,151.695 204.718,151.909 Q204.796,152.124 204.796,152.381 z M203.786,150.124 Q203.786,149.94 203.736,149.792 Q203.685,149.644 203.576,149.541 Q203.467,149.437 203.291,149.383 Q203.116,149.328 202.827,149.328 L202.133,149.328 L202.133,150.962 L202.897,150.962 Q203.159,150.962 203.318,150.894 Q203.478,150.825 203.584,150.71 Q203.689,150.595 203.738,150.441 Q203.786,150.287 203.786,150.124 z M204.09,152.42 Q204.09,152.194 204.018,152.022 Q203.946,151.851 203.808,151.734 Q203.669,151.617 203.461,151.556 Q203.252,151.496 202.936,151.496 L202.133,151.496 L202.133,153.274 L203.108,153.274 Q203.338,153.274 203.509,153.219 Q203.681,153.165 203.812,153.057 Q203.942,152.95 204.016,152.79 Q204.09,152.63 204.09,152.42 z" fill="#53802E"/>
        <path d="M207.79,150.451 Q207.79,150.537 207.786,150.595 Q207.782,150.654 207.771,150.687 Q207.759,150.72 207.741,150.738 Q207.724,150.755 207.693,150.755 Q207.661,150.755 207.617,150.738 Q207.572,150.72 207.515,150.703 Q207.459,150.685 207.389,150.669 Q207.318,150.654 207.236,150.654 Q207.139,150.654 207.045,150.693 Q206.952,150.732 206.849,150.821 Q206.745,150.911 206.632,151.059 Q206.519,151.207 206.383,151.422 L206.383,153.73 Q206.383,153.761 206.367,153.783 Q206.351,153.804 206.316,153.82 Q206.281,153.835 206.219,153.843 Q206.157,153.851 206.059,153.851 Q205.965,153.851 205.903,153.843 Q205.841,153.835 205.804,153.82 Q205.767,153.804 205.753,153.783 Q205.739,153.761 205.739,153.73 L205.739,150.221 Q205.739,150.19 205.751,150.168 Q205.763,150.147 205.798,150.129 Q205.833,150.112 205.888,150.106 Q205.942,150.1 206.032,150.1 Q206.118,150.1 206.174,150.106 Q206.231,150.112 206.262,150.129 Q206.293,150.147 206.307,150.168 Q206.32,150.19 206.32,150.221 L206.32,150.732 Q206.465,150.521 206.591,150.389 Q206.718,150.256 206.831,150.18 Q206.944,150.104 207.055,150.075 Q207.166,150.046 207.279,150.046 Q207.33,150.046 207.394,150.051 Q207.459,150.057 207.529,150.073 Q207.599,150.088 207.656,150.108 Q207.712,150.127 207.736,150.147 Q207.759,150.166 207.767,150.184 Q207.775,150.202 207.78,150.229 Q207.786,150.256 207.788,150.309 Q207.79,150.361 207.79,150.451 z" fill="#53802E"/>
        <path d="M211.786,151.936 Q211.786,152.365 211.673,152.726 Q211.56,153.087 211.336,153.348 Q211.112,153.609 210.775,153.755 Q210.437,153.901 209.993,153.901 Q209.56,153.901 209.239,153.773 Q208.917,153.644 208.702,153.399 Q208.488,153.153 208.383,152.802 Q208.277,152.451 208.277,152.007 Q208.277,151.578 208.389,151.217 Q208.5,150.857 208.724,150.595 Q208.948,150.334 209.283,150.19 Q209.619,150.046 210.067,150.046 Q210.5,150.046 210.821,150.174 Q211.143,150.303 211.358,150.549 Q211.572,150.794 211.679,151.145 Q211.786,151.496 211.786,151.936 z M211.108,151.979 Q211.108,151.695 211.055,151.441 Q211.003,151.188 210.882,150.997 Q210.761,150.806 210.554,150.695 Q210.348,150.584 210.04,150.584 Q209.755,150.584 209.55,150.685 Q209.346,150.786 209.213,150.972 Q209.081,151.157 209.016,151.41 Q208.952,151.664 208.952,151.964 Q208.952,152.252 209.005,152.506 Q209.057,152.759 209.18,152.948 Q209.303,153.137 209.51,153.248 Q209.716,153.36 210.024,153.36 Q210.305,153.36 210.511,153.258 Q210.718,153.157 210.851,152.974 Q210.983,152.79 211.046,152.537 Q211.108,152.283 211.108,151.979 z" fill="#53802E"/>
        <path d="M217.642,150.213 Q217.642,150.241 217.635,150.28 Q217.627,150.318 217.607,150.377 L216.574,153.71 Q216.562,153.753 216.537,153.781 Q216.512,153.808 216.467,153.823 Q216.422,153.839 216.344,153.845 Q216.266,153.851 216.149,153.851 Q216.028,153.851 215.946,153.843 Q215.865,153.835 215.816,153.82 Q215.767,153.804 215.744,153.777 Q215.72,153.749 215.709,153.71 L214.972,151.165 L214.964,151.129 L214.956,151.165 L214.274,153.71 Q214.262,153.753 214.237,153.781 Q214.211,153.808 214.161,153.823 Q214.11,153.839 214.03,153.845 Q213.95,153.851 213.833,153.851 Q213.712,153.851 213.636,153.843 Q213.56,153.835 213.512,153.82 Q213.463,153.804 213.439,153.777 Q213.416,153.749 213.404,153.71 L212.379,150.377 Q212.36,150.318 212.352,150.28 Q212.344,150.241 212.344,150.213 Q212.344,150.178 212.36,150.157 Q212.375,150.135 212.412,150.122 Q212.449,150.108 212.512,150.104 Q212.574,150.1 212.664,150.1 Q212.773,150.1 212.839,150.106 Q212.905,150.112 212.94,150.126 Q212.976,150.139 212.991,150.164 Q213.007,150.19 213.018,150.225 L213.864,153.118 L213.872,153.153 L213.88,153.118 L214.656,150.225 Q214.664,150.19 214.681,150.164 Q214.699,150.139 214.734,150.126 Q214.769,150.112 214.829,150.106 Q214.89,150.1 214.987,150.1 Q215.081,150.1 215.141,150.106 Q215.202,150.112 215.237,150.126 Q215.272,150.139 215.288,150.163 Q215.303,150.186 215.311,150.217 L216.149,153.118 L216.157,153.153 L216.161,153.118 L216.995,150.225 Q217.003,150.19 217.021,150.164 Q217.038,150.139 217.075,150.126 Q217.112,150.112 217.176,150.106 Q217.241,150.1 217.342,150.1 Q217.436,150.1 217.492,150.104 Q217.549,150.108 217.582,150.124 Q217.615,150.139 217.629,150.159 Q217.642,150.178 217.642,150.213 z" fill="#53802E"/>
        <path d="M220.644,152.775 Q220.644,153.044 220.545,153.254 Q220.446,153.465 220.262,153.609 Q220.079,153.753 219.826,153.827 Q219.572,153.901 219.268,153.901 Q219.081,153.901 218.911,153.872 Q218.742,153.843 218.607,153.798 Q218.473,153.753 218.379,153.705 Q218.286,153.656 218.243,153.617 Q218.2,153.578 218.18,153.508 Q218.161,153.438 218.161,153.317 Q218.161,153.243 218.169,153.192 Q218.176,153.141 218.188,153.11 Q218.2,153.079 218.221,153.065 Q218.243,153.052 218.27,153.052 Q218.313,153.052 218.397,153.104 Q218.481,153.157 218.603,153.219 Q218.726,153.282 218.894,153.334 Q219.061,153.387 219.28,153.387 Q219.444,153.387 219.576,153.352 Q219.709,153.317 219.806,153.248 Q219.904,153.18 219.956,153.075 Q220.009,152.97 220.009,152.825 Q220.009,152.677 219.933,152.576 Q219.857,152.475 219.732,152.397 Q219.607,152.319 219.451,152.258 Q219.295,152.198 219.13,152.131 Q218.964,152.065 218.806,151.981 Q218.648,151.897 218.523,151.777 Q218.399,151.656 218.323,151.488 Q218.247,151.32 218.247,151.087 Q218.247,150.88 218.327,150.691 Q218.406,150.502 218.566,150.359 Q218.726,150.217 218.966,150.131 Q219.206,150.046 219.525,150.046 Q219.666,150.046 219.806,150.069 Q219.946,150.092 220.06,150.127 Q220.173,150.163 220.253,150.203 Q220.332,150.244 220.373,150.276 Q220.414,150.307 220.428,150.33 Q220.442,150.354 220.447,150.383 Q220.453,150.412 220.459,150.455 Q220.465,150.498 220.465,150.56 Q220.465,150.626 220.459,150.675 Q220.453,150.724 220.44,150.755 Q220.426,150.786 220.407,150.8 Q220.387,150.814 220.364,150.814 Q220.329,150.814 220.262,150.771 Q220.196,150.728 220.091,150.679 Q219.985,150.63 219.843,150.588 Q219.701,150.545 219.518,150.545 Q219.354,150.545 219.229,150.582 Q219.104,150.619 219.024,150.687 Q218.944,150.755 218.904,150.849 Q218.863,150.942 218.863,151.051 Q218.863,151.204 218.941,151.307 Q219.019,151.41 219.143,151.488 Q219.268,151.566 219.428,151.628 Q219.588,151.691 219.753,151.757 Q219.919,151.823 220.081,151.905 Q220.243,151.987 220.368,152.104 Q220.492,152.221 220.568,152.385 Q220.644,152.549 220.644,152.775 z" fill="#53802E"/>
        <path d="M224.559,151.823 Q224.559,151.975 224.483,152.04 Q224.407,152.104 224.309,152.104 L222.009,152.104 Q222.009,152.397 222.067,152.63 Q222.126,152.864 222.262,153.032 Q222.399,153.2 222.617,153.289 Q222.835,153.379 223.151,153.379 Q223.401,153.379 223.596,153.338 Q223.791,153.297 223.933,153.246 Q224.075,153.196 224.167,153.155 Q224.258,153.114 224.305,153.114 Q224.333,153.114 224.354,153.128 Q224.375,153.141 224.387,153.168 Q224.399,153.196 224.405,153.245 Q224.411,153.293 224.411,153.363 Q224.411,153.414 224.407,153.451 Q224.403,153.488 224.397,153.517 Q224.391,153.547 224.377,153.57 Q224.364,153.593 224.342,153.615 Q224.321,153.636 224.216,153.685 Q224.11,153.734 223.943,153.781 Q223.775,153.827 223.555,153.864 Q223.334,153.901 223.085,153.901 Q222.652,153.901 222.327,153.781 Q222.001,153.66 221.779,153.422 Q221.557,153.184 221.444,152.825 Q221.331,152.467 221.331,151.991 Q221.331,151.539 221.447,151.178 Q221.564,150.818 221.785,150.566 Q222.005,150.315 222.317,150.18 Q222.629,150.046 223.015,150.046 Q223.428,150.046 223.719,150.178 Q224.009,150.311 224.196,150.535 Q224.383,150.759 224.471,151.061 Q224.559,151.363 224.559,151.706 z M223.911,151.632 Q223.923,151.126 223.687,150.837 Q223.451,150.549 222.987,150.549 Q222.75,150.549 222.57,150.638 Q222.391,150.728 222.27,150.876 Q222.149,151.024 222.083,151.221 Q222.017,151.418 222.009,151.632 z" fill="#53802E"/>
        <path d="M230.516,150.26 Q230.516,150.638 230.391,150.942 Q230.266,151.246 230.034,151.461 Q229.802,151.675 229.465,151.792 Q229.128,151.909 228.66,151.909 L228.087,151.909 L228.087,153.726 Q228.087,153.757 228.069,153.781 Q228.052,153.804 228.015,153.818 Q227.978,153.831 227.913,153.841 Q227.849,153.851 227.752,153.851 Q227.654,153.851 227.59,153.841 Q227.526,153.831 227.487,153.818 Q227.448,153.804 227.432,153.781 Q227.416,153.757 227.416,153.726 L227.416,149.071 Q227.416,148.915 227.498,148.849 Q227.58,148.782 227.682,148.782 L228.761,148.782 Q228.925,148.782 229.075,148.796 Q229.225,148.81 229.43,148.855 Q229.635,148.899 229.847,149.022 Q230.06,149.145 230.208,149.324 Q230.356,149.504 230.436,149.74 Q230.516,149.975 230.516,150.26 z M229.81,150.315 Q229.81,150.007 229.695,149.8 Q229.58,149.593 229.411,149.492 Q229.241,149.391 229.06,149.363 Q228.878,149.336 228.707,149.336 L228.087,149.336 L228.087,151.359 L228.691,151.359 Q228.995,151.359 229.196,151.281 Q229.397,151.204 229.533,151.065 Q229.67,150.927 229.74,150.734 Q229.81,150.541 229.81,150.315 z" fill="#53802E"/>
        <path d="M234.73,151.936 Q234.73,152.365 234.617,152.726 Q234.504,153.087 234.28,153.348 Q234.056,153.609 233.719,153.755 Q233.382,153.901 232.937,153.901 Q232.504,153.901 232.183,153.773 Q231.861,153.644 231.647,153.399 Q231.432,153.153 231.327,152.802 Q231.222,152.451 231.222,152.007 Q231.222,151.578 231.333,151.217 Q231.444,150.857 231.668,150.595 Q231.892,150.334 232.227,150.19 Q232.563,150.046 233.011,150.046 Q233.444,150.046 233.766,150.174 Q234.087,150.303 234.302,150.549 Q234.516,150.794 234.623,151.145 Q234.73,151.496 234.73,151.936 z M234.052,151.979 Q234.052,151.695 233.999,151.441 Q233.947,151.188 233.826,150.997 Q233.705,150.806 233.498,150.695 Q233.292,150.584 232.984,150.584 Q232.699,150.584 232.495,150.685 Q232.29,150.786 232.157,150.972 Q232.025,151.157 231.96,151.41 Q231.896,151.664 231.896,151.964 Q231.896,152.252 231.949,152.506 Q232.001,152.759 232.124,152.948 Q232.247,153.137 232.454,153.248 Q232.66,153.36 232.968,153.36 Q233.249,153.36 233.456,153.258 Q233.662,153.157 233.795,152.974 Q233.927,152.79 233.99,152.537 Q234.052,152.283 234.052,151.979 z" fill="#53802E"/>
        <path d="M237.881,152.775 Q237.881,153.044 237.781,153.254 Q237.682,153.465 237.499,153.609 Q237.315,153.753 237.062,153.827 Q236.809,153.901 236.504,153.901 Q236.317,153.901 236.148,153.872 Q235.978,153.843 235.844,153.798 Q235.709,153.753 235.616,153.705 Q235.522,153.656 235.479,153.617 Q235.436,153.578 235.417,153.508 Q235.397,153.438 235.397,153.317 Q235.397,153.243 235.405,153.192 Q235.413,153.141 235.424,153.11 Q235.436,153.079 235.458,153.065 Q235.479,153.052 235.506,153.052 Q235.549,153.052 235.633,153.104 Q235.717,153.157 235.84,153.219 Q235.963,153.282 236.13,153.334 Q236.298,153.387 236.516,153.387 Q236.68,153.387 236.812,153.352 Q236.945,153.317 237.042,153.248 Q237.14,153.18 237.193,153.075 Q237.245,152.97 237.245,152.825 Q237.245,152.677 237.169,152.576 Q237.093,152.475 236.968,152.397 Q236.844,152.319 236.688,152.258 Q236.532,152.198 236.366,152.131 Q236.2,152.065 236.042,151.981 Q235.885,151.897 235.76,151.777 Q235.635,151.656 235.559,151.488 Q235.483,151.32 235.483,151.087 Q235.483,150.88 235.563,150.691 Q235.643,150.502 235.803,150.359 Q235.963,150.217 236.202,150.131 Q236.442,150.046 236.762,150.046 Q236.902,150.046 237.042,150.069 Q237.183,150.092 237.296,150.127 Q237.409,150.163 237.489,150.203 Q237.569,150.244 237.61,150.276 Q237.651,150.307 237.664,150.33 Q237.678,150.354 237.684,150.383 Q237.69,150.412 237.696,150.455 Q237.701,150.498 237.701,150.56 Q237.701,150.626 237.696,150.675 Q237.69,150.724 237.676,150.755 Q237.662,150.786 237.643,150.8 Q237.623,150.814 237.6,150.814 Q237.565,150.814 237.499,150.771 Q237.432,150.728 237.327,150.679 Q237.222,150.63 237.08,150.588 Q236.937,150.545 236.754,150.545 Q236.59,150.545 236.465,150.582 Q236.341,150.619 236.261,150.687 Q236.181,150.755 236.14,150.849 Q236.099,150.942 236.099,151.051 Q236.099,151.204 236.177,151.307 Q236.255,151.41 236.38,151.488 Q236.504,151.566 236.664,151.628 Q236.824,151.691 236.99,151.757 Q237.156,151.823 237.317,151.905 Q237.479,151.987 237.604,152.104 Q237.729,152.221 237.805,152.385 Q237.881,152.549 237.881,152.775 z" fill="#53802E"/>
        <path d="M240.625,153.473 Q240.625,153.586 240.61,153.652 Q240.594,153.718 240.563,153.749 Q240.532,153.781 240.469,153.808 Q240.407,153.835 240.327,153.853 Q240.247,153.87 240.158,153.882 Q240.068,153.894 239.978,153.894 Q239.705,153.894 239.51,153.822 Q239.315,153.749 239.191,153.603 Q239.066,153.457 239.009,153.233 Q238.953,153.009 238.953,152.705 L238.953,150.654 L238.462,150.654 Q238.403,150.654 238.368,150.591 Q238.333,150.529 238.333,150.389 Q238.333,150.315 238.343,150.264 Q238.352,150.213 238.368,150.18 Q238.384,150.147 238.409,150.133 Q238.434,150.12 238.465,150.12 L238.953,150.12 L238.953,149.285 Q238.953,149.258 238.966,149.235 Q238.98,149.211 239.017,149.194 Q239.054,149.176 239.117,149.168 Q239.179,149.161 239.273,149.161 Q239.37,149.161 239.432,149.168 Q239.495,149.176 239.53,149.194 Q239.565,149.211 239.581,149.235 Q239.596,149.258 239.596,149.285 L239.596,150.12 L240.497,150.12 Q240.528,150.12 240.551,150.133 Q240.575,150.147 240.592,150.18 Q240.61,150.213 240.618,150.264 Q240.625,150.315 240.625,150.389 Q240.625,150.529 240.59,150.591 Q240.555,150.654 240.497,150.654 L239.596,150.654 L239.596,152.611 Q239.596,152.974 239.703,153.159 Q239.811,153.344 240.087,153.344 Q240.177,153.344 240.247,153.326 Q240.317,153.309 240.372,153.289 Q240.427,153.27 240.466,153.252 Q240.505,153.235 240.536,153.235 Q240.555,153.235 240.573,153.245 Q240.59,153.254 240.6,153.282 Q240.61,153.309 240.618,153.356 Q240.625,153.402 240.625,153.473 z" fill="#53802E"/>
        <path d="M242.118,153.73 Q242.118,153.761 242.103,153.783 Q242.087,153.804 242.052,153.82 Q242.017,153.835 241.955,153.843 Q241.892,153.851 241.795,153.851 Q241.701,153.851 241.639,153.843 Q241.577,153.835 241.539,153.82 Q241.502,153.804 241.489,153.783 Q241.475,153.761 241.475,153.73 L241.475,150.221 Q241.475,150.194 241.489,150.17 Q241.502,150.147 241.539,150.131 Q241.577,150.116 241.639,150.108 Q241.701,150.1 241.795,150.1 Q241.892,150.1 241.955,150.108 Q242.017,150.116 242.052,150.131 Q242.087,150.147 242.103,150.17 Q242.118,150.194 242.118,150.221 z M242.193,149.036 Q242.193,149.262 242.107,149.344 Q242.021,149.426 241.791,149.426 Q241.565,149.426 241.481,149.346 Q241.397,149.266 241.397,149.044 Q241.397,148.817 241.483,148.736 Q241.569,148.654 241.799,148.654 Q242.025,148.654 242.109,148.734 Q242.193,148.814 242.193,149.036 z" fill="#53802E"/>
        <path d="M246.329,153.73 Q246.329,153.761 246.313,153.783 Q246.298,153.804 246.263,153.82 Q246.228,153.835 246.165,153.843 Q246.103,153.851 246.009,153.851 Q245.912,153.851 245.849,153.843 Q245.787,153.835 245.752,153.82 Q245.717,153.804 245.701,153.783 Q245.686,153.761 245.686,153.73 L245.686,151.675 Q245.686,151.375 245.639,151.192 Q245.592,151.009 245.502,150.876 Q245.413,150.743 245.27,150.673 Q245.128,150.603 244.941,150.603 Q244.699,150.603 244.458,150.775 Q244.216,150.946 243.951,151.278 L243.951,153.73 Q243.951,153.761 243.935,153.783 Q243.92,153.804 243.884,153.82 Q243.849,153.835 243.787,153.843 Q243.725,153.851 243.627,153.851 Q243.534,153.851 243.471,153.843 Q243.409,153.835 243.372,153.82 Q243.335,153.804 243.321,153.783 Q243.307,153.761 243.307,153.73 L243.307,150.221 Q243.307,150.19 243.319,150.168 Q243.331,150.147 243.366,150.129 Q243.401,150.112 243.456,150.106 Q243.51,150.1 243.6,150.1 Q243.686,150.1 243.742,150.106 Q243.799,150.112 243.83,150.129 Q243.861,150.147 243.875,150.168 Q243.888,150.19 243.888,150.221 L243.888,150.685 Q244.185,150.354 244.479,150.2 Q244.773,150.046 245.074,150.046 Q245.424,150.046 245.664,150.164 Q245.904,150.283 246.052,150.482 Q246.2,150.681 246.265,150.948 Q246.329,151.215 246.329,151.589 z" fill="#53802E"/>
        <path d="M250.434,150.381 Q250.434,150.517 250.397,150.578 Q250.36,150.638 250.302,150.638 L249.799,150.638 Q249.935,150.779 249.99,150.948 Q250.044,151.118 250.044,151.301 Q250.044,151.605 249.947,151.839 Q249.85,152.073 249.668,152.235 Q249.487,152.397 249.237,152.482 Q248.988,152.568 248.684,152.568 Q248.469,152.568 248.276,152.512 Q248.083,152.455 247.978,152.369 Q247.908,152.439 247.863,152.529 Q247.818,152.619 247.818,152.736 Q247.818,152.872 247.945,152.962 Q248.072,153.052 248.282,153.059 L249.198,153.098 Q249.46,153.106 249.678,153.17 Q249.896,153.235 250.056,153.354 Q250.216,153.473 250.306,153.646 Q250.395,153.82 250.395,154.05 Q250.395,154.291 250.294,154.51 Q250.193,154.728 249.984,154.894 Q249.775,155.059 249.452,155.155 Q249.128,155.25 248.688,155.25 Q248.263,155.25 247.964,155.178 Q247.666,155.106 247.475,154.981 Q247.284,154.857 247.198,154.683 Q247.113,154.51 247.113,154.307 Q247.113,154.178 247.144,154.057 Q247.175,153.937 247.239,153.827 Q247.304,153.718 247.399,153.619 Q247.495,153.519 247.619,153.422 Q247.428,153.324 247.337,153.176 Q247.245,153.028 247.245,152.857 Q247.245,152.619 247.343,152.432 Q247.44,152.244 247.584,152.096 Q247.463,151.952 247.393,151.771 Q247.323,151.589 247.323,151.332 Q247.323,151.032 247.424,150.794 Q247.526,150.556 247.705,150.393 Q247.885,150.229 248.136,150.141 Q248.387,150.053 248.684,150.053 Q248.844,150.053 248.982,150.071 Q249.12,150.088 249.241,150.12 L250.302,150.12 Q250.368,150.12 250.401,150.184 Q250.434,150.248 250.434,150.381 z M249.428,151.305 Q249.428,150.946 249.232,150.745 Q249.035,150.545 248.672,150.545 Q248.485,150.545 248.347,150.607 Q248.208,150.669 248.117,150.779 Q248.025,150.888 247.98,151.03 Q247.935,151.172 247.935,151.328 Q247.935,151.675 248.132,151.874 Q248.329,152.073 248.684,152.073 Q248.875,152.073 249.015,152.013 Q249.156,151.952 249.247,151.845 Q249.339,151.738 249.384,151.597 Q249.428,151.457 249.428,151.305 z M249.752,154.085 Q249.752,153.859 249.567,153.736 Q249.382,153.613 249.066,153.605 L248.157,153.574 Q248.033,153.671 247.953,153.759 Q247.873,153.847 247.826,153.927 Q247.779,154.007 247.762,154.085 Q247.744,154.163 247.744,154.245 Q247.744,154.498 248.001,154.629 Q248.259,154.759 248.719,154.759 Q249.011,154.759 249.208,154.703 Q249.405,154.646 249.526,154.553 Q249.647,154.459 249.699,154.338 Q249.752,154.217 249.752,154.085 z" fill="#53802E"/>
        <path d="M253.464,152.775 Q253.464,153.044 253.364,153.254 Q253.265,153.465 253.082,153.609 Q252.898,153.753 252.645,153.827 Q252.391,153.901 252.087,153.901 Q251.9,153.901 251.731,153.872 Q251.561,153.843 251.427,153.798 Q251.292,153.753 251.198,153.705 Q251.105,153.656 251.062,153.617 Q251.019,153.578 251,153.508 Q250.98,153.438 250.98,153.317 Q250.98,153.243 250.988,153.192 Q250.996,153.141 251.007,153.11 Q251.019,153.079 251.041,153.065 Q251.062,153.052 251.089,153.052 Q251.132,153.052 251.216,153.104 Q251.3,153.157 251.423,153.219 Q251.545,153.282 251.713,153.334 Q251.881,153.387 252.099,153.387 Q252.263,153.387 252.395,153.352 Q252.528,153.317 252.625,153.248 Q252.723,153.18 252.775,153.075 Q252.828,152.97 252.828,152.825 Q252.828,152.677 252.752,152.576 Q252.676,152.475 252.551,152.397 Q252.427,152.319 252.271,152.258 Q252.115,152.198 251.949,152.131 Q251.783,152.065 251.625,151.981 Q251.467,151.897 251.343,151.777 Q251.218,151.656 251.142,151.488 Q251.066,151.32 251.066,151.087 Q251.066,150.88 251.146,150.691 Q251.226,150.502 251.386,150.359 Q251.545,150.217 251.785,150.131 Q252.025,150.046 252.345,150.046 Q252.485,150.046 252.625,150.069 Q252.766,150.092 252.879,150.127 Q252.992,150.163 253.072,150.203 Q253.152,150.244 253.193,150.276 Q253.234,150.307 253.247,150.33 Q253.261,150.354 253.267,150.383 Q253.273,150.412 253.278,150.455 Q253.284,150.498 253.284,150.56 Q253.284,150.626 253.278,150.675 Q253.273,150.724 253.259,150.755 Q253.245,150.786 253.226,150.8 Q253.206,150.814 253.183,150.814 Q253.148,150.814 253.082,150.771 Q253.015,150.728 252.91,150.679 Q252.805,150.63 252.662,150.588 Q252.52,150.545 252.337,150.545 Q252.173,150.545 252.048,150.582 Q251.924,150.619 251.844,150.687 Q251.764,150.755 251.723,150.849 Q251.682,150.942 251.682,151.051 Q251.682,151.204 251.76,151.307 Q251.838,151.41 251.963,151.488 Q252.087,151.566 252.247,151.628 Q252.407,151.691 252.573,151.757 Q252.738,151.823 252.9,151.905 Q253.062,151.987 253.187,152.104 Q253.312,152.221 253.388,152.385 Q253.464,152.549 253.464,152.775 z" fill="#53802E"/>
        <path d="M333.206,205.829 L122.382,205.829" fill-opacity="0" stroke="#6CA43E" stroke-width="0.499" stroke-dasharray="3.493,2.495" stroke-linecap="round" stroke-linejoin="round"/>
        <path d="M129.847,202.096 L122.382,205.829 L129.847,209.562" fill-opacity="0" stroke="#6CA43E" stroke-width="0.499" stroke-linecap="round" stroke-linejoin="round"/>
        <path d="M213.775,210.12 L240.816,210.12 L240.816,200.538 L213.775,200.538 z" fill="#FFFFFF"/>
        <path d="M217.545,204.157 Q217.545,204.535 217.42,204.839 Q217.295,205.144 217.063,205.358 Q216.831,205.572 216.494,205.689 Q216.157,205.806 215.689,205.806 L215.116,205.806 L215.116,207.623 Q215.116,207.654 215.098,207.678 Q215.081,207.701 215.044,207.715 Q215.007,207.728 214.943,207.738 Q214.878,207.748 214.781,207.748 Q214.683,207.748 214.619,207.738 Q214.555,207.728 214.516,207.715 Q214.477,207.701 214.461,207.678 Q214.445,207.654 214.445,207.623 L214.445,202.968 Q214.445,202.812 214.527,202.746 Q214.609,202.68 214.711,202.68 L215.791,202.68 Q215.954,202.68 216.104,202.693 Q216.254,202.707 216.459,202.752 Q216.664,202.796 216.876,202.919 Q217.089,203.042 217.237,203.221 Q217.385,203.401 217.465,203.637 Q217.545,203.873 217.545,204.157 z M216.839,204.212 Q216.839,203.904 216.724,203.697 Q216.609,203.49 216.44,203.389 Q216.27,203.288 216.089,203.26 Q215.907,203.233 215.736,203.233 L215.116,203.233 L215.116,205.257 L215.72,205.257 Q216.024,205.257 216.225,205.179 Q216.426,205.101 216.562,204.962 Q216.699,204.824 216.769,204.631 Q216.839,204.438 216.839,204.212 z" fill="#53802E"/>
        <path d="M221.76,205.834 Q221.76,206.262 221.646,206.623 Q221.533,206.984 221.309,207.245 Q221.085,207.506 220.748,207.652 Q220.411,207.799 219.966,207.799 Q219.533,207.799 219.212,207.67 Q218.89,207.541 218.676,207.296 Q218.461,207.05 218.356,206.699 Q218.251,206.348 218.251,205.904 Q218.251,205.475 218.362,205.114 Q218.473,204.754 218.697,204.492 Q218.921,204.231 219.257,204.087 Q219.592,203.943 220.04,203.943 Q220.473,203.943 220.795,204.071 Q221.116,204.2 221.331,204.446 Q221.545,204.691 221.652,205.042 Q221.76,205.393 221.76,205.834 z M221.081,205.877 Q221.081,205.592 221.028,205.338 Q220.976,205.085 220.855,204.894 Q220.734,204.703 220.527,204.592 Q220.321,204.481 220.013,204.481 Q219.728,204.481 219.524,204.582 Q219.319,204.683 219.186,204.869 Q219.054,205.054 218.989,205.307 Q218.925,205.561 218.925,205.861 Q218.925,206.149 218.978,206.403 Q219.03,206.656 219.153,206.845 Q219.276,207.034 219.483,207.146 Q219.689,207.257 219.997,207.257 Q220.278,207.257 220.485,207.155 Q220.691,207.054 220.824,206.871 Q220.956,206.687 221.019,206.434 Q221.081,206.181 221.081,205.877 z" fill="#53802E"/>
        <path d="M224.91,206.672 Q224.91,206.941 224.81,207.151 Q224.711,207.362 224.528,207.506 Q224.344,207.65 224.091,207.725 Q223.838,207.799 223.533,207.799 Q223.346,207.799 223.177,207.769 Q223.007,207.74 222.873,207.695 Q222.738,207.65 222.645,207.602 Q222.551,207.553 222.508,207.514 Q222.465,207.475 222.446,207.405 Q222.426,207.335 222.426,207.214 Q222.426,207.14 222.434,207.089 Q222.442,207.038 222.454,207.007 Q222.465,206.976 222.487,206.962 Q222.508,206.949 222.535,206.949 Q222.578,206.949 222.662,207.001 Q222.746,207.054 222.869,207.116 Q222.992,207.179 223.159,207.231 Q223.327,207.284 223.545,207.284 Q223.709,207.284 223.841,207.249 Q223.974,207.214 224.072,207.146 Q224.169,207.077 224.222,206.972 Q224.274,206.867 224.274,206.723 Q224.274,206.574 224.198,206.473 Q224.122,206.372 223.997,206.294 Q223.873,206.216 223.717,206.155 Q223.561,206.095 223.395,206.029 Q223.229,205.962 223.071,205.878 Q222.914,205.795 222.789,205.674 Q222.664,205.553 222.588,205.385 Q222.512,205.218 222.512,204.984 Q222.512,204.777 222.592,204.588 Q222.672,204.399 222.832,204.257 Q222.992,204.114 223.231,204.028 Q223.471,203.943 223.791,203.943 Q223.931,203.943 224.072,203.966 Q224.212,203.99 224.325,204.025 Q224.438,204.06 224.518,204.101 Q224.598,204.142 224.639,204.173 Q224.68,204.204 224.693,204.227 Q224.707,204.251 224.713,204.28 Q224.719,204.309 224.725,204.352 Q224.73,204.395 224.73,204.457 Q224.73,204.524 224.725,204.572 Q224.719,204.621 224.705,204.652 Q224.691,204.683 224.672,204.697 Q224.652,204.711 224.629,204.711 Q224.594,204.711 224.528,204.668 Q224.461,204.625 224.356,204.576 Q224.251,204.528 224.109,204.485 Q223.966,204.442 223.783,204.442 Q223.619,204.442 223.494,204.479 Q223.37,204.516 223.29,204.584 Q223.21,204.652 223.169,204.746 Q223.128,204.839 223.128,204.949 Q223.128,205.101 223.206,205.204 Q223.284,205.307 223.409,205.385 Q223.533,205.463 223.693,205.526 Q223.853,205.588 224.019,205.654 Q224.185,205.721 224.346,205.802 Q224.508,205.884 224.633,206.001 Q224.758,206.118 224.834,206.282 Q224.91,206.446 224.91,206.672 z" fill="#53802E"/>
        <path d="M227.654,207.37 Q227.654,207.483 227.639,207.549 Q227.623,207.615 227.592,207.647 Q227.561,207.678 227.499,207.705 Q227.436,207.732 227.356,207.75 Q227.276,207.767 227.187,207.779 Q227.097,207.791 227.007,207.791 Q226.734,207.791 226.539,207.719 Q226.344,207.647 226.22,207.5 Q226.095,207.354 226.038,207.13 Q225.982,206.906 225.982,206.602 L225.982,204.551 L225.491,204.551 Q225.432,204.551 225.397,204.489 Q225.362,204.426 225.362,204.286 Q225.362,204.212 225.372,204.161 Q225.381,204.11 225.397,204.077 Q225.413,204.044 225.438,204.03 Q225.463,204.017 225.495,204.017 L225.982,204.017 L225.982,203.182 Q225.982,203.155 225.996,203.132 Q226.009,203.108 226.046,203.091 Q226.083,203.073 226.146,203.065 Q226.208,203.058 226.302,203.058 Q226.399,203.058 226.461,203.065 Q226.524,203.073 226.559,203.091 Q226.594,203.108 226.61,203.132 Q226.625,203.155 226.625,203.182 L226.625,204.017 L227.526,204.017 Q227.557,204.017 227.58,204.03 Q227.604,204.044 227.621,204.077 Q227.639,204.11 227.647,204.161 Q227.654,204.212 227.654,204.286 Q227.654,204.426 227.619,204.489 Q227.584,204.551 227.526,204.551 L226.625,204.551 L226.625,206.508 Q226.625,206.871 226.732,207.056 Q226.84,207.241 227.116,207.241 Q227.206,207.241 227.276,207.224 Q227.346,207.206 227.401,207.186 Q227.456,207.167 227.495,207.149 Q227.534,207.132 227.565,207.132 Q227.584,207.132 227.602,207.142 Q227.619,207.151 227.629,207.179 Q227.639,207.206 227.647,207.253 Q227.654,207.3 227.654,207.37 z" fill="#53802E"/>
        <path d="M229.147,207.627 Q229.147,207.658 229.132,207.68 Q229.116,207.701 229.081,207.717 Q229.046,207.732 228.984,207.74 Q228.921,207.748 228.824,207.748 Q228.73,207.748 228.668,207.74 Q228.606,207.732 228.569,207.717 Q228.531,207.701 228.518,207.68 Q228.504,207.658 228.504,207.627 L228.504,204.118 Q228.504,204.091 228.518,204.067 Q228.531,204.044 228.569,204.028 Q228.606,204.013 228.668,204.005 Q228.73,203.997 228.824,203.997 Q228.921,203.997 228.984,204.005 Q229.046,204.013 229.081,204.028 Q229.116,204.044 229.132,204.067 Q229.147,204.091 229.147,204.118 z M229.222,202.933 Q229.222,203.159 229.136,203.241 Q229.05,203.323 228.82,203.323 Q228.594,203.323 228.51,203.243 Q228.426,203.163 228.426,202.941 Q228.426,202.715 228.512,202.633 Q228.598,202.551 228.828,202.551 Q229.054,202.551 229.138,202.631 Q229.222,202.711 229.222,202.933 z" fill="#53802E"/>
        <path d="M233.358,207.627 Q233.358,207.658 233.342,207.68 Q233.327,207.701 233.292,207.717 Q233.257,207.732 233.194,207.74 Q233.132,207.748 233.038,207.748 Q232.941,207.748 232.878,207.74 Q232.816,207.732 232.781,207.717 Q232.746,207.701 232.73,207.68 Q232.715,207.658 232.715,207.627 L232.715,205.572 Q232.715,205.272 232.668,205.089 Q232.621,204.906 232.531,204.773 Q232.442,204.641 232.299,204.57 Q232.157,204.5 231.97,204.5 Q231.728,204.5 231.487,204.672 Q231.245,204.843 230.98,205.175 L230.98,207.627 Q230.98,207.658 230.964,207.68 Q230.949,207.701 230.913,207.717 Q230.878,207.732 230.816,207.74 Q230.754,207.748 230.656,207.748 Q230.563,207.748 230.5,207.74 Q230.438,207.732 230.401,207.717 Q230.364,207.701 230.35,207.68 Q230.336,207.658 230.336,207.627 L230.336,204.118 Q230.336,204.087 230.348,204.066 Q230.36,204.044 230.395,204.027 Q230.43,204.009 230.485,204.003 Q230.539,203.997 230.629,203.997 Q230.715,203.997 230.771,204.003 Q230.828,204.009 230.859,204.027 Q230.89,204.044 230.904,204.066 Q230.917,204.087 230.917,204.118 L230.917,204.582 Q231.214,204.251 231.508,204.097 Q231.802,203.943 232.103,203.943 Q232.454,203.943 232.693,204.062 Q232.933,204.181 233.081,204.379 Q233.229,204.578 233.294,204.845 Q233.358,205.112 233.358,205.487 z" fill="#53802E"/>
        <path d="M237.463,204.278 Q237.463,204.414 237.426,204.475 Q237.389,204.535 237.331,204.535 L236.828,204.535 Q236.964,204.676 237.019,204.845 Q237.074,205.015 237.074,205.198 Q237.074,205.502 236.976,205.736 Q236.879,205.97 236.697,206.132 Q236.516,206.294 236.266,206.379 Q236.017,206.465 235.713,206.465 Q235.498,206.465 235.305,206.409 Q235.112,206.352 235.007,206.266 Q234.937,206.337 234.892,206.426 Q234.847,206.516 234.847,206.633 Q234.847,206.769 234.974,206.859 Q235.101,206.949 235.311,206.956 L236.227,206.995 Q236.489,207.003 236.707,207.068 Q236.925,207.132 237.085,207.251 Q237.245,207.37 237.335,207.543 Q237.424,207.717 237.424,207.947 Q237.424,208.188 237.323,208.407 Q237.222,208.625 237.013,208.791 Q236.804,208.957 236.481,209.052 Q236.157,209.148 235.717,209.148 Q235.292,209.148 234.994,209.075 Q234.695,209.003 234.504,208.879 Q234.313,208.754 234.227,208.58 Q234.142,208.407 234.142,208.204 Q234.142,208.075 234.173,207.955 Q234.204,207.834 234.268,207.725 Q234.333,207.615 234.428,207.516 Q234.524,207.417 234.648,207.319 Q234.457,207.222 234.366,207.073 Q234.274,206.925 234.274,206.754 Q234.274,206.516 234.372,206.329 Q234.469,206.142 234.613,205.993 Q234.493,205.849 234.422,205.668 Q234.352,205.487 234.352,205.229 Q234.352,204.929 234.454,204.691 Q234.555,204.453 234.734,204.29 Q234.914,204.126 235.165,204.038 Q235.417,203.951 235.713,203.951 Q235.873,203.951 236.011,203.968 Q236.149,203.986 236.27,204.017 L237.331,204.017 Q237.397,204.017 237.43,204.081 Q237.463,204.145 237.463,204.278 z M236.458,205.202 Q236.458,204.843 236.261,204.643 Q236.064,204.442 235.701,204.442 Q235.514,204.442 235.376,204.504 Q235.237,204.567 235.146,204.676 Q235.054,204.785 235.009,204.927 Q234.964,205.069 234.964,205.225 Q234.964,205.572 235.161,205.771 Q235.358,205.97 235.713,205.97 Q235.904,205.97 236.044,205.91 Q236.185,205.849 236.276,205.742 Q236.368,205.635 236.413,205.494 Q236.458,205.354 236.458,205.202 z M236.781,207.982 Q236.781,207.756 236.596,207.633 Q236.411,207.51 236.095,207.502 L235.186,207.471 Q235.062,207.569 234.982,207.656 Q234.902,207.744 234.855,207.824 Q234.808,207.904 234.791,207.982 Q234.773,208.06 234.773,208.142 Q234.773,208.395 235.031,208.526 Q235.288,208.656 235.748,208.656 Q236.04,208.656 236.237,208.6 Q236.434,208.543 236.555,208.45 Q236.676,208.356 236.728,208.235 Q236.781,208.114 236.781,207.982 z" fill="#53802E"/>
        <path d="M240.493,206.672 Q240.493,206.941 240.393,207.151 Q240.294,207.362 240.111,207.506 Q239.927,207.65 239.674,207.725 Q239.421,207.799 239.116,207.799 Q238.929,207.799 238.76,207.769 Q238.59,207.74 238.456,207.695 Q238.321,207.65 238.227,207.602 Q238.134,207.553 238.091,207.514 Q238.048,207.475 238.029,207.405 Q238.009,207.335 238.009,207.214 Q238.009,207.14 238.017,207.089 Q238.025,207.038 238.036,207.007 Q238.048,206.976 238.07,206.962 Q238.091,206.949 238.118,206.949 Q238.161,206.949 238.245,207.001 Q238.329,207.054 238.452,207.116 Q238.574,207.179 238.742,207.231 Q238.91,207.284 239.128,207.284 Q239.292,207.284 239.424,207.249 Q239.557,207.214 239.654,207.146 Q239.752,207.077 239.805,206.972 Q239.857,206.867 239.857,206.723 Q239.857,206.574 239.781,206.473 Q239.705,206.372 239.58,206.294 Q239.456,206.216 239.3,206.155 Q239.144,206.095 238.978,206.029 Q238.812,205.962 238.654,205.878 Q238.497,205.795 238.372,205.674 Q238.247,205.553 238.171,205.385 Q238.095,205.218 238.095,204.984 Q238.095,204.777 238.175,204.588 Q238.255,204.399 238.415,204.257 Q238.574,204.114 238.814,204.028 Q239.054,203.943 239.374,203.943 Q239.514,203.943 239.654,203.966 Q239.795,203.99 239.908,204.025 Q240.021,204.06 240.101,204.101 Q240.181,204.142 240.222,204.173 Q240.263,204.204 240.276,204.227 Q240.29,204.251 240.296,204.28 Q240.302,204.309 240.307,204.352 Q240.313,204.395 240.313,204.457 Q240.313,204.524 240.307,204.572 Q240.302,204.621 240.288,204.652 Q240.274,204.683 240.255,204.697 Q240.235,204.711 240.212,204.711 Q240.177,204.711 240.111,204.668 Q240.044,204.625 239.939,204.576 Q239.834,204.528 239.691,204.485 Q239.549,204.442 239.366,204.442 Q239.202,204.442 239.077,204.479 Q238.953,204.516 238.873,204.584 Q238.793,204.652 238.752,204.746 Q238.711,204.839 238.711,204.949 Q238.711,205.101 238.789,205.204 Q238.867,205.307 238.992,205.385 Q239.116,205.463 239.276,205.526 Q239.436,205.588 239.602,205.654 Q239.768,205.721 239.929,205.802 Q240.091,205.884 240.216,206.001 Q240.341,206.118 240.417,206.282 Q240.493,206.446 240.493,206.672 z" fill="#53802E"/>
        <path d="M1,390.262 L387.257,390.262 L387.257,1.005 L1,1.005 z" fill-opacity="0" stroke="#A5A5A5" stroke-width="0.499" stroke-linecap="round" stroke-linejoin="round"/>
        <path d="M0.5,18.076 L57.387,18.076 L64.573,10.89 L64.573,0.5 L0.5,0.5 L0.5,18.076 z" fill="#FFFFFF"/>
        <path d="M1,18.576 L57.887,18.576 L65.073,11.39 L65.073,1 L1,1 L1,18.576 z" fill-opacity="0" stroke="#A5A5A5" stroke-width="0.499" stroke-linecap="round" stroke-linejoin="round"/>
        <path d="M8.695,10.176 Q8.695,10.445 8.621,10.663 Q8.547,10.882 8.417,11.049 Q8.286,11.217 8.105,11.338 Q7.923,11.459 7.705,11.537 Q7.487,11.615 7.239,11.652 Q6.992,11.689 6.687,11.689 L5.346,11.689 Q5.218,11.689 5.13,11.613 Q5.042,11.537 5.042,11.365 L5.042,6.967 Q5.042,6.796 5.13,6.72 Q5.218,6.644 5.346,6.644 L6.613,6.644 Q7.077,6.644 7.399,6.722 Q7.721,6.8 7.941,6.957 Q8.161,7.115 8.278,7.357 Q8.395,7.599 8.395,7.926 Q8.395,8.11 8.348,8.271 Q8.302,8.433 8.212,8.566 Q8.122,8.698 7.992,8.8 Q7.861,8.901 7.693,8.963 Q7.908,9.002 8.089,9.1 Q8.27,9.197 8.405,9.351 Q8.539,9.505 8.617,9.712 Q8.695,9.919 8.695,10.176 z M7.37,8.051 Q7.37,7.899 7.323,7.778 Q7.276,7.657 7.183,7.577 Q7.089,7.497 6.947,7.455 Q6.804,7.412 6.567,7.412 L6.048,7.412 L6.048,8.722 L6.621,8.722 Q6.843,8.722 6.976,8.669 Q7.109,8.616 7.196,8.525 Q7.284,8.433 7.327,8.31 Q7.37,8.188 7.37,8.051 z M7.631,10.211 Q7.631,10.036 7.572,9.897 Q7.514,9.759 7.401,9.665 Q7.288,9.572 7.112,9.521 Q6.937,9.47 6.656,9.47 L6.048,9.47 L6.048,10.905 L6.789,10.905 Q7.003,10.905 7.149,10.86 Q7.296,10.815 7.403,10.728 Q7.51,10.64 7.571,10.509 Q7.631,10.379 7.631,10.211 z" fill="#A5A5A5"/>
        <path d="M11.693,8.402 Q11.693,8.542 11.686,8.632 Q11.678,8.722 11.662,8.772 Q11.647,8.823 11.621,8.843 Q11.596,8.862 11.557,8.862 Q11.526,8.862 11.487,8.848 Q11.448,8.835 11.399,8.819 Q11.35,8.804 11.292,8.79 Q11.233,8.776 11.163,8.776 Q11.081,8.776 10.999,8.809 Q10.918,8.843 10.83,8.913 Q10.742,8.983 10.647,9.1 Q10.551,9.217 10.442,9.388 L10.442,11.556 Q10.442,11.595 10.419,11.624 Q10.395,11.654 10.339,11.673 Q10.282,11.693 10.189,11.702 Q10.095,11.712 9.951,11.712 Q9.806,11.712 9.713,11.702 Q9.619,11.693 9.563,11.673 Q9.506,11.654 9.483,11.624 Q9.459,11.595 9.459,11.556 L9.459,8.078 Q9.459,8.039 9.479,8.01 Q9.498,7.981 9.549,7.961 Q9.6,7.942 9.68,7.932 Q9.76,7.922 9.881,7.922 Q10.005,7.922 10.087,7.932 Q10.169,7.942 10.214,7.961 Q10.259,7.981 10.278,8.01 Q10.298,8.039 10.298,8.078 L10.298,8.511 Q10.434,8.316 10.555,8.19 Q10.676,8.063 10.785,7.989 Q10.894,7.915 11.003,7.885 Q11.113,7.856 11.222,7.856 Q11.272,7.856 11.331,7.862 Q11.389,7.868 11.452,7.881 Q11.514,7.895 11.561,7.913 Q11.608,7.93 11.629,7.95 Q11.651,7.969 11.66,7.993 Q11.67,8.016 11.678,8.057 Q11.686,8.098 11.69,8.18 Q11.693,8.262 11.693,8.402 z" fill="#A5A5A5"/>
        <path d="M15.814,9.782 Q15.814,10.227 15.697,10.593 Q15.581,10.96 15.343,11.225 Q15.105,11.49 14.746,11.634 Q14.388,11.778 13.908,11.778 Q13.444,11.778 13.101,11.65 Q12.758,11.521 12.532,11.275 Q12.306,11.03 12.196,10.671 Q12.087,10.312 12.087,9.852 Q12.087,9.408 12.206,9.039 Q12.325,8.671 12.563,8.408 Q12.801,8.145 13.157,8 Q13.514,7.856 13.994,7.856 Q14.462,7.856 14.805,7.983 Q15.148,8.11 15.372,8.355 Q15.596,8.601 15.705,8.96 Q15.814,9.318 15.814,9.782 z M14.805,9.821 Q14.805,9.564 14.764,9.347 Q14.723,9.131 14.625,8.971 Q14.528,8.811 14.366,8.722 Q14.204,8.632 13.959,8.632 Q13.74,8.632 13.577,8.712 Q13.413,8.792 13.308,8.946 Q13.202,9.1 13.15,9.316 Q13.097,9.533 13.097,9.809 Q13.097,10.067 13.14,10.283 Q13.183,10.5 13.278,10.659 Q13.374,10.819 13.538,10.907 Q13.701,10.995 13.943,10.995 Q14.165,10.995 14.329,10.915 Q14.493,10.835 14.598,10.683 Q14.703,10.531 14.754,10.314 Q14.805,10.098 14.805,9.821 z" fill="#A5A5A5"/>
        <path d="M21.912,8.071 Q21.912,8.113 21.9,8.176 Q21.889,8.238 21.858,8.355 L20.93,11.502 Q20.91,11.568 20.879,11.609 Q20.848,11.65 20.783,11.673 Q20.719,11.696 20.6,11.704 Q20.481,11.712 20.29,11.712 Q20.099,11.712 19.978,11.702 Q19.858,11.693 19.789,11.669 Q19.721,11.646 19.69,11.605 Q19.659,11.564 19.643,11.502 L19.058,9.388 L19.05,9.353 L19.043,9.388 L18.505,11.502 Q18.489,11.568 18.46,11.609 Q18.431,11.65 18.36,11.673 Q18.29,11.696 18.169,11.704 Q18.049,11.712 17.857,11.712 Q17.663,11.712 17.544,11.702 Q17.425,11.693 17.356,11.669 Q17.288,11.646 17.257,11.605 Q17.226,11.564 17.21,11.502 L16.29,8.355 Q16.255,8.242 16.245,8.178 Q16.236,8.113 16.236,8.071 Q16.236,8.032 16.257,8.002 Q16.278,7.973 16.335,7.956 Q16.392,7.938 16.487,7.93 Q16.583,7.922 16.727,7.922 Q16.883,7.922 16.98,7.93 Q17.078,7.938 17.132,7.958 Q17.187,7.977 17.208,8.01 Q17.23,8.043 17.241,8.09 L17.932,10.644 L17.939,10.691 L17.947,10.644 L18.594,8.09 Q18.606,8.043 18.631,8.01 Q18.657,7.977 18.707,7.958 Q18.758,7.938 18.85,7.93 Q18.941,7.922 19.086,7.922 Q19.23,7.922 19.32,7.932 Q19.409,7.942 19.462,7.959 Q19.514,7.977 19.536,8.006 Q19.557,8.036 19.569,8.074 L20.263,10.648 L20.275,10.691 L20.283,10.644 L20.945,8.09 Q20.953,8.043 20.976,8.01 Q21,7.977 21.054,7.958 Q21.109,7.938 21.203,7.93 Q21.296,7.922 21.44,7.922 Q21.585,7.922 21.676,7.93 Q21.768,7.938 21.821,7.956 Q21.873,7.973 21.893,8.002 Q21.912,8.032 21.912,8.071 z" fill="#A5A5A5"/>
        <path d="M24.988,10.574 Q24.988,10.87 24.877,11.096 Q24.766,11.322 24.563,11.474 Q24.361,11.626 24.084,11.702 Q23.807,11.778 23.483,11.778 Q23.288,11.778 23.111,11.749 Q22.934,11.72 22.793,11.675 Q22.653,11.63 22.559,11.583 Q22.466,11.537 22.423,11.496 Q22.38,11.455 22.357,11.367 Q22.333,11.279 22.333,11.108 Q22.333,10.995 22.341,10.926 Q22.349,10.858 22.364,10.817 Q22.38,10.776 22.403,10.763 Q22.427,10.749 22.462,10.749 Q22.505,10.749 22.589,10.798 Q22.672,10.847 22.797,10.905 Q22.922,10.963 23.088,11.014 Q23.253,11.065 23.464,11.065 Q23.596,11.065 23.7,11.038 Q23.803,11.01 23.879,10.96 Q23.955,10.909 23.994,10.831 Q24.033,10.753 24.033,10.652 Q24.033,10.535 23.961,10.451 Q23.889,10.367 23.77,10.305 Q23.651,10.242 23.501,10.188 Q23.351,10.133 23.193,10.067 Q23.035,10 22.885,9.915 Q22.735,9.829 22.616,9.704 Q22.497,9.579 22.425,9.404 Q22.353,9.229 22.353,8.983 Q22.353,8.733 22.45,8.525 Q22.548,8.316 22.731,8.168 Q22.914,8.02 23.177,7.938 Q23.44,7.856 23.768,7.856 Q23.932,7.856 24.086,7.88 Q24.24,7.903 24.364,7.938 Q24.489,7.973 24.575,8.014 Q24.661,8.055 24.698,8.084 Q24.735,8.113 24.75,8.143 Q24.766,8.172 24.774,8.213 Q24.782,8.254 24.787,8.314 Q24.793,8.375 24.793,8.464 Q24.793,8.57 24.787,8.636 Q24.782,8.702 24.768,8.741 Q24.754,8.78 24.731,8.794 Q24.708,8.807 24.676,8.807 Q24.641,8.807 24.567,8.767 Q24.493,8.726 24.382,8.679 Q24.271,8.632 24.125,8.591 Q23.978,8.55 23.791,8.55 Q23.659,8.55 23.561,8.577 Q23.464,8.605 23.401,8.655 Q23.339,8.706 23.308,8.774 Q23.277,8.843 23.277,8.921 Q23.277,9.041 23.351,9.123 Q23.425,9.205 23.546,9.268 Q23.667,9.33 23.821,9.384 Q23.975,9.439 24.132,9.503 Q24.29,9.568 24.444,9.653 Q24.598,9.739 24.719,9.864 Q24.84,9.989 24.914,10.162 Q24.988,10.336 24.988,10.574 z" fill="#A5A5A5"/>
        <path d="M28.938,9.716 Q28.938,9.895 28.858,9.981 Q28.778,10.067 28.638,10.067 L26.521,10.067 Q26.521,10.289 26.573,10.47 Q26.626,10.652 26.741,10.778 Q26.856,10.905 27.037,10.971 Q27.218,11.038 27.472,11.038 Q27.729,11.038 27.924,11.001 Q28.119,10.963 28.261,10.919 Q28.404,10.874 28.497,10.837 Q28.591,10.8 28.649,10.8 Q28.684,10.8 28.708,10.813 Q28.731,10.827 28.747,10.862 Q28.762,10.897 28.768,10.962 Q28.774,11.026 28.774,11.123 Q28.774,11.209 28.77,11.27 Q28.766,11.33 28.758,11.373 Q28.751,11.416 28.735,11.445 Q28.719,11.474 28.694,11.502 Q28.669,11.529 28.556,11.576 Q28.443,11.622 28.267,11.667 Q28.092,11.712 27.866,11.745 Q27.64,11.778 27.382,11.778 Q26.918,11.778 26.569,11.661 Q26.22,11.544 25.986,11.307 Q25.753,11.069 25.637,10.706 Q25.522,10.344 25.522,9.856 Q25.522,9.392 25.643,9.02 Q25.764,8.648 25.994,8.388 Q26.224,8.129 26.554,7.993 Q26.883,7.856 27.296,7.856 Q27.733,7.856 28.043,7.985 Q28.353,8.113 28.552,8.342 Q28.751,8.57 28.844,8.882 Q28.938,9.193 28.938,9.56 z M27.987,9.435 Q27.998,9.022 27.821,8.786 Q27.643,8.55 27.273,8.55 Q27.086,8.55 26.947,8.62 Q26.809,8.69 26.717,8.809 Q26.626,8.928 26.577,9.09 Q26.528,9.252 26.521,9.435 z" fill="#A5A5A5"/>
        <path d="M35.063,8.176 Q35.063,8.601 34.93,8.928 Q34.798,9.256 34.544,9.48 Q34.291,9.704 33.922,9.821 Q33.554,9.938 33.055,9.938 L32.634,9.938 L32.634,11.548 Q32.634,11.587 32.608,11.618 Q32.583,11.65 32.525,11.669 Q32.466,11.689 32.369,11.7 Q32.271,11.712 32.119,11.712 Q31.971,11.712 31.872,11.7 Q31.772,11.689 31.714,11.669 Q31.655,11.65 31.632,11.618 Q31.608,11.587 31.608,11.548 L31.608,7.01 Q31.608,6.827 31.704,6.735 Q31.799,6.644 31.955,6.644 L33.145,6.644 Q33.324,6.644 33.486,6.657 Q33.648,6.671 33.874,6.716 Q34.1,6.761 34.332,6.881 Q34.564,7.002 34.727,7.188 Q34.891,7.373 34.977,7.62 Q35.063,7.868 35.063,8.176 z M33.991,8.25 Q33.991,7.985 33.897,7.813 Q33.803,7.642 33.667,7.56 Q33.531,7.478 33.38,7.457 Q33.23,7.435 33.07,7.435 L32.634,7.435 L32.634,9.147 L33.094,9.147 Q33.34,9.147 33.505,9.08 Q33.671,9.014 33.776,8.895 Q33.881,8.776 33.936,8.611 Q33.991,8.445 33.991,8.25 z" fill="#A5A5A5"/>
        <path d="M39.316,9.782 Q39.316,10.227 39.199,10.593 Q39.082,10.96 38.844,11.225 Q38.607,11.49 38.248,11.634 Q37.889,11.778 37.41,11.778 Q36.946,11.778 36.603,11.65 Q36.26,11.521 36.033,11.275 Q35.807,11.03 35.698,10.671 Q35.589,10.312 35.589,9.852 Q35.589,9.408 35.708,9.039 Q35.827,8.671 36.065,8.408 Q36.302,8.145 36.659,8 Q37.016,7.856 37.495,7.856 Q37.963,7.856 38.306,7.983 Q38.65,8.11 38.874,8.355 Q39.098,8.601 39.207,8.96 Q39.316,9.318 39.316,9.782 z M38.306,9.821 Q38.306,9.564 38.265,9.347 Q38.225,9.131 38.127,8.971 Q38.03,8.811 37.868,8.722 Q37.706,8.632 37.46,8.632 Q37.242,8.632 37.078,8.712 Q36.915,8.792 36.809,8.946 Q36.704,9.1 36.651,9.316 Q36.599,9.533 36.599,9.809 Q36.599,10.067 36.642,10.283 Q36.685,10.5 36.78,10.659 Q36.876,10.819 37.039,10.907 Q37.203,10.995 37.445,10.995 Q37.667,10.995 37.831,10.915 Q37.995,10.835 38.1,10.683 Q38.205,10.531 38.256,10.314 Q38.306,10.098 38.306,9.821 z" fill="#A5A5A5"/>
        <path d="M42.541,10.574 Q42.541,10.87 42.429,11.096 Q42.318,11.322 42.116,11.474 Q41.913,11.626 41.636,11.702 Q41.359,11.778 41.036,11.778 Q40.841,11.778 40.663,11.749 Q40.486,11.72 40.346,11.675 Q40.205,11.63 40.112,11.583 Q40.018,11.537 39.975,11.496 Q39.932,11.455 39.909,11.367 Q39.885,11.279 39.885,11.108 Q39.885,10.995 39.893,10.926 Q39.901,10.858 39.917,10.817 Q39.932,10.776 39.956,10.763 Q39.979,10.749 40.014,10.749 Q40.057,10.749 40.141,10.798 Q40.225,10.847 40.349,10.905 Q40.474,10.963 40.64,11.014 Q40.806,11.065 41.016,11.065 Q41.149,11.065 41.252,11.038 Q41.355,11.01 41.431,10.96 Q41.507,10.909 41.546,10.831 Q41.585,10.753 41.585,10.652 Q41.585,10.535 41.513,10.451 Q41.441,10.367 41.322,10.305 Q41.203,10.242 41.053,10.188 Q40.903,10.133 40.745,10.067 Q40.587,10 40.437,9.915 Q40.287,9.829 40.168,9.704 Q40.049,9.579 39.977,9.404 Q39.905,9.229 39.905,8.983 Q39.905,8.733 40.002,8.525 Q40.1,8.316 40.283,8.168 Q40.466,8.02 40.73,7.938 Q40.993,7.856 41.32,7.856 Q41.484,7.856 41.638,7.88 Q41.792,7.903 41.917,7.938 Q42.042,7.973 42.127,8.014 Q42.213,8.055 42.25,8.084 Q42.287,8.113 42.303,8.143 Q42.318,8.172 42.326,8.213 Q42.334,8.254 42.34,8.314 Q42.346,8.375 42.346,8.464 Q42.346,8.57 42.34,8.636 Q42.334,8.702 42.32,8.741 Q42.307,8.78 42.283,8.794 Q42.26,8.807 42.229,8.807 Q42.194,8.807 42.119,8.767 Q42.045,8.726 41.934,8.679 Q41.823,8.632 41.677,8.591 Q41.531,8.55 41.344,8.55 Q41.211,8.55 41.114,8.577 Q41.016,8.605 40.954,8.655 Q40.891,8.706 40.86,8.774 Q40.829,8.843 40.829,8.921 Q40.829,9.041 40.903,9.123 Q40.977,9.205 41.098,9.268 Q41.219,9.33 41.373,9.384 Q41.527,9.439 41.685,9.503 Q41.843,9.568 41.997,9.653 Q42.151,9.739 42.272,9.864 Q42.392,9.989 42.466,10.162 Q42.541,10.336 42.541,10.574 z" fill="#A5A5A5"/>
        <path d="M45.336,11.213 Q45.336,11.385 45.315,11.476 Q45.293,11.568 45.258,11.605 Q45.223,11.642 45.155,11.671 Q45.087,11.7 44.995,11.722 Q44.903,11.743 44.796,11.755 Q44.689,11.767 44.58,11.767 Q44.287,11.767 44.073,11.693 Q43.858,11.618 43.718,11.464 Q43.578,11.31 43.511,11.077 Q43.445,10.843 43.445,10.523 L43.445,8.741 L43.028,8.741 Q42.954,8.741 42.915,8.65 Q42.876,8.558 42.876,8.344 Q42.876,8.23 42.886,8.152 Q42.895,8.074 42.915,8.03 Q42.934,7.985 42.964,7.965 Q42.993,7.946 43.032,7.946 L43.445,7.946 L43.445,7.17 Q43.445,7.131 43.467,7.1 Q43.488,7.069 43.545,7.047 Q43.601,7.026 43.697,7.016 Q43.792,7.006 43.933,7.006 Q44.077,7.006 44.172,7.016 Q44.268,7.026 44.322,7.047 Q44.377,7.069 44.4,7.1 Q44.424,7.131 44.424,7.17 L44.424,7.946 L45.18,7.946 Q45.219,7.946 45.248,7.965 Q45.278,7.985 45.297,8.03 Q45.317,8.074 45.326,8.152 Q45.336,8.23 45.336,8.344 Q45.336,8.558 45.297,8.65 Q45.258,8.741 45.184,8.741 L44.424,8.741 L44.424,10.375 Q44.424,10.659 44.513,10.802 Q44.603,10.944 44.833,10.944 Q44.911,10.944 44.973,10.93 Q45.036,10.917 45.085,10.899 Q45.133,10.882 45.166,10.868 Q45.2,10.854 45.227,10.854 Q45.25,10.854 45.272,10.868 Q45.293,10.882 45.305,10.923 Q45.317,10.963 45.326,11.034 Q45.336,11.104 45.336,11.213 z" fill="#A5A5A5"/>
        <path d="M47.028,11.556 Q47.028,11.595 47.005,11.624 Q46.981,11.654 46.925,11.673 Q46.868,11.693 46.775,11.702 Q46.681,11.712 46.537,11.712 Q46.393,11.712 46.299,11.702 Q46.206,11.693 46.149,11.673 Q46.093,11.654 46.069,11.624 Q46.046,11.595 46.046,11.556 L46.046,8.086 Q46.046,8.047 46.069,8.018 Q46.093,7.989 46.149,7.967 Q46.206,7.946 46.299,7.934 Q46.393,7.922 46.537,7.922 Q46.681,7.922 46.775,7.934 Q46.868,7.946 46.925,7.967 Q46.981,7.989 47.005,8.018 Q47.028,8.047 47.028,8.086 z M47.102,6.901 Q47.102,7.197 46.981,7.31 Q46.861,7.423 46.533,7.423 Q46.202,7.423 46.087,7.314 Q45.972,7.205 45.972,6.92 Q45.972,6.624 46.091,6.509 Q46.209,6.394 46.541,6.394 Q46.868,6.394 46.985,6.505 Q47.102,6.616 47.102,6.901 z" fill="#A5A5A5"/>
        <path d="M51.329,11.556 Q51.329,11.595 51.305,11.624 Q51.282,11.654 51.227,11.673 Q51.173,11.693 51.077,11.702 Q50.982,11.712 50.841,11.712 Q50.697,11.712 50.601,11.702 Q50.506,11.693 50.451,11.673 Q50.397,11.654 50.373,11.624 Q50.35,11.595 50.35,11.556 L50.35,9.572 Q50.35,9.318 50.313,9.174 Q50.276,9.03 50.206,8.926 Q50.136,8.823 50.024,8.767 Q49.913,8.71 49.765,8.71 Q49.578,8.71 49.387,8.846 Q49.196,8.983 48.989,9.244 L48.989,11.556 Q48.989,11.595 48.966,11.624 Q48.943,11.654 48.886,11.673 Q48.829,11.693 48.736,11.702 Q48.642,11.712 48.498,11.712 Q48.354,11.712 48.26,11.702 Q48.167,11.693 48.11,11.673 Q48.054,11.654 48.03,11.624 Q48.007,11.595 48.007,11.556 L48.007,8.078 Q48.007,8.039 48.026,8.01 Q48.046,7.981 48.097,7.961 Q48.147,7.942 48.227,7.932 Q48.307,7.922 48.428,7.922 Q48.553,7.922 48.635,7.932 Q48.716,7.942 48.761,7.961 Q48.806,7.981 48.826,8.01 Q48.845,8.039 48.845,8.078 L48.845,8.48 Q49.134,8.168 49.432,8.012 Q49.73,7.856 50.054,7.856 Q50.408,7.856 50.652,7.973 Q50.896,8.09 51.046,8.291 Q51.196,8.492 51.262,8.761 Q51.329,9.03 51.329,9.408 z" fill="#A5A5A5"/>
        <path d="M55.426,8.32 Q55.426,8.507 55.383,8.597 Q55.34,8.687 55.278,8.687 L54.869,8.687 Q54.954,8.78 54.991,8.899 Q55.028,9.018 55.028,9.147 Q55.028,9.451 54.927,9.687 Q54.826,9.923 54.637,10.084 Q54.448,10.246 54.18,10.33 Q53.913,10.414 53.586,10.414 Q53.418,10.414 53.266,10.373 Q53.114,10.332 53.032,10.277 Q52.986,10.328 52.948,10.398 Q52.911,10.468 52.911,10.554 Q52.911,10.667 53.011,10.739 Q53.11,10.811 53.29,10.819 L54.136,10.85 Q54.432,10.862 54.664,10.934 Q54.896,11.006 55.054,11.137 Q55.212,11.268 55.296,11.451 Q55.379,11.634 55.379,11.868 Q55.379,12.125 55.266,12.353 Q55.153,12.581 54.927,12.749 Q54.701,12.917 54.36,13.014 Q54.019,13.112 53.563,13.112 Q53.118,13.112 52.804,13.042 Q52.49,12.971 52.29,12.847 Q52.089,12.722 51.997,12.548 Q51.906,12.375 51.906,12.168 Q51.906,12.04 51.939,11.923 Q51.972,11.806 52.036,11.698 Q52.1,11.591 52.194,11.494 Q52.288,11.396 52.408,11.307 Q52.241,11.217 52.149,11.063 Q52.058,10.909 52.058,10.726 Q52.058,10.496 52.163,10.307 Q52.268,10.117 52.436,9.965 Q52.299,9.829 52.217,9.638 Q52.136,9.447 52.136,9.162 Q52.136,8.858 52.243,8.618 Q52.35,8.379 52.541,8.213 Q52.732,8.047 52.997,7.959 Q53.262,7.872 53.582,7.872 Q53.746,7.872 53.896,7.891 Q54.046,7.911 54.175,7.946 L55.278,7.946 Q55.344,7.946 55.385,8.032 Q55.426,8.117 55.426,8.32 z M54.167,9.143 Q54.167,8.862 54.011,8.706 Q53.855,8.55 53.57,8.55 Q53.426,8.55 53.317,8.599 Q53.208,8.648 53.136,8.731 Q53.063,8.815 53.028,8.926 Q52.993,9.037 52.993,9.158 Q52.993,9.423 53.149,9.577 Q53.305,9.731 53.582,9.731 Q53.73,9.731 53.839,9.685 Q53.948,9.638 54.021,9.556 Q54.093,9.474 54.13,9.367 Q54.167,9.26 54.167,9.143 z M54.397,11.919 Q54.397,11.743 54.257,11.65 Q54.116,11.556 53.871,11.548 L53.173,11.529 Q53.071,11.603 53.011,11.671 Q52.95,11.739 52.913,11.802 Q52.876,11.864 52.865,11.923 Q52.853,11.981 52.853,12.043 Q52.853,12.238 53.05,12.34 Q53.247,12.441 53.605,12.441 Q53.828,12.441 53.98,12.396 Q54.132,12.351 54.225,12.277 Q54.319,12.203 54.358,12.112 Q54.397,12.02 54.397,11.919 z" fill="#A5A5A5"/>
        <path d="M58.526,10.574 Q58.526,10.87 58.415,11.096 Q58.303,11.322 58.101,11.474 Q57.898,11.626 57.621,11.702 Q57.344,11.778 57.021,11.778 Q56.826,11.778 56.648,11.749 Q56.471,11.72 56.331,11.675 Q56.19,11.63 56.097,11.583 Q56.003,11.537 55.96,11.496 Q55.917,11.455 55.894,11.367 Q55.871,11.279 55.871,11.108 Q55.871,10.995 55.878,10.926 Q55.886,10.858 55.902,10.817 Q55.917,10.776 55.941,10.763 Q55.964,10.749 55.999,10.749 Q56.042,10.749 56.126,10.798 Q56.21,10.847 56.335,10.905 Q56.459,10.963 56.625,11.014 Q56.791,11.065 57.001,11.065 Q57.134,11.065 57.237,11.038 Q57.34,11.01 57.417,10.96 Q57.493,10.909 57.532,10.831 Q57.571,10.753 57.571,10.652 Q57.571,10.535 57.498,10.451 Q57.426,10.367 57.307,10.305 Q57.188,10.242 57.038,10.188 Q56.888,10.133 56.73,10.067 Q56.572,10 56.422,9.915 Q56.272,9.829 56.153,9.704 Q56.034,9.579 55.962,9.404 Q55.89,9.229 55.89,8.983 Q55.89,8.733 55.988,8.525 Q56.085,8.316 56.268,8.168 Q56.452,8.02 56.715,7.938 Q56.978,7.856 57.305,7.856 Q57.469,7.856 57.623,7.88 Q57.777,7.903 57.902,7.938 Q58.027,7.973 58.112,8.014 Q58.198,8.055 58.235,8.084 Q58.272,8.113 58.288,8.143 Q58.303,8.172 58.311,8.213 Q58.319,8.254 58.325,8.314 Q58.331,8.375 58.331,8.464 Q58.331,8.57 58.325,8.636 Q58.319,8.702 58.305,8.741 Q58.292,8.78 58.268,8.794 Q58.245,8.807 58.214,8.807 Q58.179,8.807 58.105,8.767 Q58.031,8.726 57.919,8.679 Q57.808,8.632 57.662,8.591 Q57.516,8.55 57.329,8.55 Q57.196,8.55 57.099,8.577 Q57.001,8.605 56.939,8.655 Q56.877,8.706 56.845,8.774 Q56.814,8.843 56.814,8.921 Q56.814,9.041 56.888,9.123 Q56.962,9.205 57.083,9.268 Q57.204,9.33 57.358,9.384 Q57.512,9.439 57.67,9.503 Q57.828,9.568 57.982,9.653 Q58.136,9.739 58.257,9.864 Q58.378,9.989 58.452,10.162 Q58.526,10.336 58.526,10.574 z" fill="#A5A5A5"/>
      </g>
    </g>
  </g>
</svg>
